<?xml version="1.0" encoding="UTF-8"?><svg version="1.1" width="512px" height="512px" viewBox="0 0 512.0 512.0" xmlns="http://www.w3.org/2000/svg" xmlns:xlink="http://www.w3.org/1999/xlink"><defs><clipPath id="i0"><path d="M512,0 L512,512 L0,512 L0,0 L512,0 Z"></path></clipPath><clipPath id="i1"><path d="M512,0 L512,0.0525084632 L340.196094,227.565511 L512,454.973731 L387.588465,454.973731 L279.026871,311.284055 L275.248077,316.458985 L182.300511,443.678199 L174.034399,455 L0,455 L31.8572858,411.367724 L166.135933,227.539243 L31.8572858,43.7110247 L0,0.0788034112 L174.034399,0.0788034112 L182.300511,11.4006016 L275.248077,138.619763 L278.974387,143.742156 L387.588465,0 L512,0 Z M159.968889,27.5295182 L54.2416526,27.5295182 L63.2947501,39.9283348 L200.039848,227.145213 L200.328506,227.512974 L200.171056,227.723124 L200.039848,227.880736 L75.41838,398.496071 L54.2416526,427.496693 L159.968889,427.496693 L252.916718,300.277479 L261.681158,288.272692 L306.055742,227.512974 L258.138801,161.920082 L252.916718,154.748732 L159.968889,27.5295182 Z"></path></clipPath></defs><g clip-path="url(#i0)"><g transform="translate(0.0 29.0)"><g clip-path="url(#i1)"><polygon points="0,0 512,0 512,455 0,455 0,0" stroke="none" fill="#0F0F22"></polygon></g></g></g></svg>