<?xml version="1.0" encoding="UTF-8"?>
<svg width="1040px" height="300px" viewBox="0 0 1040 300" version="1.1" xmlns="http://www.w3.org/2000/svg" xmlns:xlink="http://www.w3.org/1999/xlink">
    <title>contacts-logo</title>
    <defs>
        <linearGradient x1="100%" y1="50%" x2="1.23685784e-13%" y2="50%" id="linearGradient-1">
            <stop stop-color="#E44E63" offset="0%"></stop>
            <stop stop-color="#530EC1" offset="51.376449%"></stop>
            <stop stop-color="#47EAE2" offset="100%"></stop>
        </linearGradient>
    </defs>
    <g id="contacts-logo" stroke="none" stroke-width="1" fill="none" fill-rule="evenodd">
        <g id="Contacts" transform="translate(336.450000, 96.100000)" fill="#3F413F" fill-rule="nonzero">
            <path d="M0,53.55 C0,43.35 2.3,34.175 6.9,26.025 C11.5,17.875 17.775,11.5 25.725,6.9 C33.675,2.3 42.5,0 52.2,0 C63.6,0 73.55,2.75 82.05,8.25 C90.55,13.75 96.75,21.55 100.65,31.65 L84.3,31.65 C81.4,25.35 77.225,20.5 71.775,17.1 C66.325,13.7 59.8,12 52.2,12 C44.9,12 38.35,13.7 32.55,17.1 C26.75,20.5 22.2,25.325 18.9,31.575 C15.6,37.825 13.95,45.15 13.95,53.55 C13.95,61.85 15.6,69.125 18.9,75.375 C22.2,81.625 26.75,86.45 32.55,89.85 C38.35,93.25 44.9,94.95 52.2,94.95 C59.8,94.95 66.325,93.275 71.775,89.925 C77.225,86.575 81.4,81.75 84.3,75.45 L100.65,75.45 C96.75,85.45 90.55,93.175 82.05,98.625 C73.55,104.075 63.6,106.8 52.2,106.8 C42.5,106.8 33.675,104.525 25.725,99.975 C17.775,95.425 11.5,89.1 6.9,81 C2.3,72.9 0,63.75 0,53.55 Z" id="Path"></path>
            <path d="M155.840909,107.25 C148.140909,107.25 141.165909,105.5 134.915909,102 C128.665909,98.5 123.765909,93.525 120.215909,87.075 C116.665909,80.625 114.890909,73.15 114.890909,64.65 C114.890909,56.25 116.715909,48.825 120.365909,42.375 C124.015909,35.925 128.990909,30.975 135.290909,27.525 C141.590909,24.075 148.640909,22.35 156.440909,22.35 C164.240909,22.35 171.290909,24.075 177.590909,27.525 C183.890909,30.975 188.865909,35.9 192.515909,42.3 C196.165909,48.7 197.990909,56.15 197.990909,64.65 C197.990909,73.15 196.115909,80.625 192.365909,87.075 C188.615909,93.525 183.540909,98.5 177.140909,102 C170.740909,105.5 163.640909,107.25 155.840909,107.25 Z M155.840909,95.25 C160.740909,95.25 165.340909,94.1 169.640909,91.8 C173.940909,89.5 177.415909,86.05 180.065909,81.45 C182.715909,76.85 184.040909,71.25 184.040909,64.65 C184.040909,58.05 182.740909,52.45 180.140909,47.85 C177.540909,43.25 174.140909,39.825 169.940909,37.575 C165.740909,35.325 161.190909,34.2 156.290909,34.2 C151.290909,34.2 146.715909,35.325 142.565909,37.575 C138.415909,39.825 135.090909,43.25 132.590909,47.85 C130.090909,52.45 128.840909,58.05 128.840909,64.65 C128.840909,71.35 130.065909,77 132.515909,81.6 C134.965909,86.2 138.240909,89.625 142.340909,91.875 C146.440909,94.125 150.940909,95.25 155.840909,95.25 Z" id="Shape"></path>
            <path d="M255.131818,22.2 C265.131818,22.2 273.231818,25.225 279.431818,31.275 C285.631818,37.325 288.731818,46.05 288.731818,57.45 L288.731818,105.9 L275.231818,105.9 L275.231818,59.4 C275.231818,51.2 273.181818,44.925 269.081818,40.575 C264.981818,36.225 259.381818,34.05 252.281818,34.05 C245.081818,34.05 239.356818,36.3 235.106818,40.8 C230.856818,45.3 228.731818,51.85 228.731818,60.45 L228.731818,105.9 L215.081818,105.9 L215.081818,23.7 L228.731818,23.7 L228.731818,35.4 C231.431818,31.2 235.106818,27.95 239.756818,25.65 C244.406818,23.35 249.531818,22.2 255.131818,22.2 Z" id="Path"></path>
            <path d="M326.822727,34.95 L326.822727,83.4 C326.822727,87.4 327.672727,90.225 329.372727,91.875 C331.072727,93.525 334.022727,94.35 338.222727,94.35 L348.272727,94.35 L348.272727,105.9 L335.972727,105.9 C328.372727,105.9 322.672727,104.15 318.872727,100.65 C315.072727,97.15 313.172727,91.4 313.172727,83.4 L313.172727,34.95 L302.522727,34.95 L302.522727,23.7 L313.172727,23.7 L313.172727,3 L326.822727,3 L326.822727,23.7 L348.272727,23.7 L348.272727,34.95 L326.822727,34.95 Z" id="Path"></path>
            <path d="M358.763636,64.5 C358.763636,56.1 360.463636,48.725 363.863636,42.375 C367.263636,36.025 371.938636,31.1 377.888636,27.6 C383.838636,24.1 390.463636,22.35 397.763636,22.35 C404.963636,22.35 411.213636,23.9 416.513636,27 C421.813636,30.1 425.763636,34 428.363636,38.7 L428.363636,23.7 L442.163636,23.7 L442.163636,105.9 L428.363636,105.9 L428.363636,90.6 C425.663636,95.4 421.638636,99.375 416.288636,102.525 C410.938636,105.675 404.713636,107.25 397.613636,107.25 C390.313636,107.25 383.713636,105.45 377.813636,101.85 C371.913636,98.25 367.263636,93.2 363.863636,86.7 C360.463636,80.2 358.763636,72.8 358.763636,64.5 Z M428.363636,64.65 C428.363636,58.45 427.113636,53.05 424.613636,48.45 C422.113636,43.85 418.738636,40.325 414.488636,37.875 C410.238636,35.425 405.563636,34.2 400.463636,34.2 C395.363636,34.2 390.713636,35.4 386.513636,37.8 C382.313636,40.2 378.963636,43.7 376.463636,48.3 C373.963636,52.9 372.713636,58.3 372.713636,64.5 C372.713636,70.8 373.963636,76.275 376.463636,80.925 C378.963636,85.575 382.313636,89.125 386.513636,91.575 C390.713636,94.025 395.363636,95.25 400.463636,95.25 C405.563636,95.25 410.238636,94.025 414.488636,91.575 C418.738636,89.125 422.113636,85.575 424.613636,80.925 C427.113636,76.275 428.363636,70.85 428.363636,64.65 Z" id="Shape"></path>
            <path d="M459.254545,64.65 C459.254545,56.15 460.954545,48.725 464.354545,42.375 C467.754545,36.025 472.479545,31.1 478.529545,27.6 C484.579545,24.1 491.504545,22.35 499.304545,22.35 C509.404545,22.35 517.729545,24.8 524.279545,29.7 C530.829545,34.6 535.154545,41.4 537.254545,50.1 L522.554545,50.1 C521.154545,45.1 518.429545,41.15 514.379545,38.25 C510.329545,35.35 505.304545,33.9 499.304545,33.9 C491.504545,33.9 485.204545,36.575 480.404545,41.925 C475.604545,47.275 473.204545,54.85 473.204545,64.65 C473.204545,74.55 475.604545,82.2 480.404545,87.6 C485.204545,93 491.504545,95.7 499.304545,95.7 C505.304545,95.7 510.304545,94.3 514.304545,91.5 C518.304545,88.7 521.054545,84.7 522.554545,79.5 L537.254545,79.5 C535.054545,87.9 530.654545,94.625 524.054545,99.675 C517.454545,104.725 509.204545,107.25 499.304545,107.25 C491.504545,107.25 484.579545,105.5 478.529545,102 C472.479545,98.5 467.754545,93.55 464.354545,87.15 C460.954545,80.75 459.254545,73.25 459.254545,64.65 Z" id="Path"></path>
            <path d="M571.145454,34.95 L571.145454,83.4 C571.145454,87.4 571.995454,90.225 573.695454,91.875 C575.395454,93.525 578.345454,94.35 582.545454,94.35 L592.595454,94.35 L592.595454,105.9 L580.295454,105.9 C572.695454,105.9 566.995454,104.15 563.195454,100.65 C559.395454,97.15 557.495454,91.4 557.495454,83.4 L557.495454,34.95 L546.845454,34.95 L546.845454,23.7 L557.495454,23.7 L557.495454,3 L571.145454,3 L571.145454,23.7 L592.595454,23.7 L592.595454,34.95 L571.145454,34.95 Z" id="Path"></path>
            <path d="M637.286364,107.25 C630.986364,107.25 625.336364,106.175 620.336364,104.025 C615.336364,101.875 611.386364,98.875 608.486364,95.025 C605.586364,91.175 603.986364,86.75 603.686364,81.75 L617.786364,81.75 C618.186364,85.85 620.111364,89.2 623.561364,91.8 C627.011364,94.4 631.536364,95.7 637.136364,95.7 C642.336364,95.7 646.436364,94.55 649.436364,92.25 C652.436364,89.95 653.936364,87.05 653.936364,83.55 C653.936364,79.95 652.336364,77.275 649.136364,75.525 C645.936364,73.775 640.986364,72.05 634.286364,70.35 C628.186364,68.75 623.211364,67.125 619.361364,65.475 C615.511364,63.825 612.211364,61.375 609.461364,58.125 C606.711364,54.875 605.336364,50.6 605.336364,45.3 C605.336364,41.1 606.586364,37.25 609.086364,33.75 C611.586364,30.25 615.136364,27.475 619.736364,25.425 C624.336364,23.375 629.586364,22.35 635.486364,22.35 C644.586364,22.35 651.936364,24.65 657.536364,29.25 C663.136364,33.85 666.136364,40.15 666.536364,48.15 L652.886364,48.15 C652.586364,43.85 650.861364,40.4 647.711364,37.8 C644.561364,35.2 640.336364,33.9 635.036364,33.9 C630.136364,33.9 626.236364,34.95 623.336364,37.05 C620.436364,39.15 618.986364,41.9 618.986364,45.3 C618.986364,48 619.861364,50.225 621.611364,51.975 C623.361364,53.725 625.561364,55.125 628.211364,56.175 C630.861364,57.225 634.536364,58.4 639.236364,59.7 C645.136364,61.3 649.936364,62.875 653.636364,64.425 C657.336364,65.975 660.511364,68.3 663.161364,71.4 C665.811364,74.5 667.186364,78.55 667.286364,83.55 C667.286364,88.05 666.036364,92.1 663.536364,95.7 C661.036364,99.3 657.511364,102.125 652.961364,104.175 C648.411364,106.225 643.186364,107.25 637.286364,107.25 Z" id="Path"></path>
        </g>
        <rect id="Rectangle" fill-opacity="0.15" fill="url(#linearGradient-1)" x="0" y="0" width="300" height="300" rx="66"></rect>
        <path d="M188.9,215.7 L65.6,215.7 C57.5,215.7 51,209.2 51,201.1 L51,98.6 C51,90.5 57.5,84 65.6,84 L112.1,84 C116.5,84 120.6,86 123.4,89.4 L138.5,107.9 C141.3,111.3 145.4,113.3 149.8,113.3 L188.9,113.3 C197,113.3 203.5,119.8 203.5,127.9 L203.5,201.2 C203.5,209.1 197,215.7 188.9,215.7 Z" id="Path" fill="#47EAE2" fill-rule="nonzero"></path>
        <polygon id="Path" fill="#E44E63" fill-rule="nonzero" points="248.5 113.2 128.5 113.2 105.7 215.7 225.7 215.7"></polygon>
        <path d="M203.5,201 L203.5,127.7 C203.5,119.6 197,113.1 188.9,113.1 L149.8,113.1 L128.5,113.1 L105.7,215.6 L189,215.6 C197,215.7 203.5,209.1 203.5,201 Z" id="Path" fill="#530EC1" fill-rule="nonzero"></path>
    </g>
</svg>