<?xml version="1.0" encoding="UTF-8"?>
<svg width="1081px" height="300px" viewBox="0 0 1081 300" version="1.1" xmlns="http://www.w3.org/2000/svg" xmlns:xlink="http://www.w3.org/1999/xlink">
    <title>deliver-logo</title>
    <defs>
        <linearGradient x1="50%" y1="75.3736433%" x2="50%" y2="1.16660154e-14%" id="linearGradient-1">
            <stop stop-color="#8E4DF4" offset="0%"></stop>
            <stop stop-color="#F25252" offset="36.747745%"></stop>
            <stop stop-color="#F25252" offset="100%"></stop>
        </linearGradient>
    </defs>
    <g id="deliver-logo" stroke="none" stroke-width="1" fill="none" fill-rule="evenodd">
        <g id="Deliver" transform="translate(341.550000, 87.850000)" fill="#3F413F" fill-rule="nonzero">
            <path d="M32.55,9.6 C43.95,9.6 53.825,11.725 62.175,15.975 C70.525,20.225 76.925,26.3 81.375,34.2 C85.825,42.1 88.05,51.4 88.05,62.1 C88.05,72.8 85.825,82.075 81.375,89.925 C76.925,97.775 70.525,103.775 62.175,107.925 C53.825,112.075 43.95,114.15 32.55,114.15 L0,114.15 L0,9.6 L32.55,9.6 Z M32.55,102.9 C46.05,102.9 56.35,99.325 63.45,92.175 C70.55,85.025 74.1,75 74.1,62.1 C74.1,49.1 70.525,38.95 63.375,31.65 C56.225,24.35 45.95,20.7 32.55,20.7 L13.65,20.7 L13.65,102.9 L32.55,102.9 Z" id="Shape"></path>
            <path d="M180.140909,69.9 C180.140909,72.5 179.990909,75.25 179.690909,78.15 L113.990909,78.15 C114.490909,86.25 117.265909,92.575 122.315909,97.125 C127.365909,101.675 133.490909,103.95 140.690909,103.95 C146.590909,103.95 151.515909,102.575 155.465909,99.825 C159.415909,97.075 162.190909,93.4 163.790909,88.8 L178.490909,88.8 C176.290909,96.7 171.890909,103.125 165.290909,108.075 C158.690909,113.025 150.490909,115.5 140.690909,115.5 C132.890909,115.5 125.915909,113.75 119.765909,110.25 C113.615909,106.75 108.790909,101.775 105.290909,95.325 C101.790909,88.875 100.040909,81.4 100.040909,72.9 C100.040909,64.4 101.740909,56.95 105.140909,50.55 C108.540909,44.15 113.315909,39.225 119.465909,35.775 C125.615909,32.325 132.690909,30.6 140.690909,30.6 C148.490909,30.6 155.390909,32.3 161.390909,35.7 C167.390909,39.1 172.015909,43.775 175.265909,49.725 C178.515909,55.675 180.140909,62.4 180.140909,69.9 Z M166.040909,67.05 C166.040909,61.85 164.890909,57.375 162.590909,53.625 C160.290909,49.875 157.165909,47.025 153.215909,45.075 C149.265909,43.125 144.890909,42.15 140.090909,42.15 C133.190909,42.15 127.315909,44.35 122.465909,48.75 C117.615909,53.15 114.840909,59.25 114.140909,67.05 L166.040909,67.05 Z" id="Shape"></path>
            <polygon id="Path" points="210.881818 3.15 210.881818 114.15 197.231818 114.15 197.231818 3.15"></polygon>
            <path d="M240.272727,18.6 C237.672727,18.6 235.472727,17.7 233.672727,15.9 C231.872727,14.1 230.972727,11.9 230.972727,9.3 C230.972727,6.7 231.872727,4.5 233.672727,2.7 C235.472727,0.9 237.672727,0 240.272727,0 C242.772727,0 244.897727,0.9 246.647727,2.7 C248.397727,4.5 249.272727,6.7 249.272727,9.3 C249.272727,11.9 248.397727,14.1 246.647727,15.9 C244.897727,17.7 242.772727,18.6 240.272727,18.6 Z M246.872727,31.95 L246.872727,114.15 L233.222727,114.15 L233.222727,31.95 L246.872727,31.95 Z" id="Shape"></path>
            <polygon id="Path" points="299.813636 101.55 325.313636 31.95 339.863636 31.95 307.613636 114.15 291.713636 114.15 259.463636 31.95 274.163636 31.95"></polygon>
            <path d="M427.454545,69.9 C427.454545,72.5 427.304545,75.25 427.004545,78.15 L361.304545,78.15 C361.804545,86.25 364.579545,92.575 369.629545,97.125 C374.679545,101.675 380.804545,103.95 388.004545,103.95 C393.904545,103.95 398.829545,102.575 402.779545,99.825 C406.729545,97.075 409.504545,93.4 411.104545,88.8 L425.804545,88.8 C423.604545,96.7 419.204545,103.125 412.604545,108.075 C406.004545,113.025 397.804545,115.5 388.004545,115.5 C380.204545,115.5 373.229545,113.75 367.079545,110.25 C360.929545,106.75 356.104545,101.775 352.604545,95.325 C349.104545,88.875 347.354545,81.4 347.354545,72.9 C347.354545,64.4 349.054545,56.95 352.454545,50.55 C355.854545,44.15 360.629545,39.225 366.779545,35.775 C372.929545,32.325 380.004545,30.6 388.004545,30.6 C395.804545,30.6 402.704545,32.3 408.704545,35.7 C414.704545,39.1 419.329545,43.775 422.579545,49.725 C425.829545,55.675 427.454545,62.4 427.454545,69.9 Z M413.354545,67.05 C413.354545,61.85 412.204545,57.375 409.904545,53.625 C407.604545,49.875 404.479545,47.025 400.529545,45.075 C396.579545,43.125 392.204545,42.15 387.404545,42.15 C380.504545,42.15 374.629545,44.35 369.779545,48.75 C364.929545,53.15 362.154545,59.25 361.454545,67.05 L413.354545,67.05 Z" id="Shape"></path>
            <path d="M458.195454,45.3 C460.595454,40.6 464.020454,36.95 468.470454,34.35 C472.920454,31.75 478.345454,30.45 484.745454,30.45 L484.745454,44.55 L481.145454,44.55 C465.845454,44.55 458.195454,52.85 458.195454,69.45 L458.195454,114.15 L444.545454,114.15 L444.545454,31.95 L458.195454,31.95 L458.195454,45.3 Z" id="Path"></path>
        </g>
        <rect id="Rectangle" fill-opacity="0.15" fill="url(#linearGradient-1)" x="0" y="0" width="300" height="300" rx="66"></rect>
        <path d="M214.675,246.375 L85.275,246.375 C81.075,246.375 77.675,242.975 77.675,238.775 L77.675,202.675 C77.675,198.475 81.075,195.075 85.275,195.075 L214.575,195.075 C218.775,195.075 222.175,198.475 222.175,202.675 L222.175,238.775 C222.275,242.975 218.875,246.375 214.675,246.375 Z" id="Path" fill="#8E4DF4" fill-rule="nonzero"></path>
        <path d="M232.675,158.475 L165.475,225.675 C156.975,234.175 143.075,234.175 134.575,225.675 L67.375,158.475 C58.875,149.975 58.875,136.075 67.375,127.575 L134.575,60.375 C143.075,51.875 156.975,51.875 165.475,60.375 L232.675,127.575 C241.275,136.075 241.275,149.875 232.675,158.475 Z" id="Path" fill="#F25252" fill-rule="nonzero"></path>
    </g>
</svg>