<?xml version="1.0" encoding="UTF-8"?>
<svg width="1040px" height="300px" viewBox="0 0 1040 300" version="1.1" xmlns="http://www.w3.org/2000/svg" xmlns:xlink="http://www.w3.org/1999/xlink">
    <title>inventory-logo</title>
    <defs>
        <linearGradient x1="100%" y1="50%" x2="1.23685784e-13%" y2="50%" id="linearGradient-1">
            <stop stop-color="#47EAE2" offset="0%"></stop>
            <stop stop-color="#530EC1" offset="51.376449%"></stop>
            <stop stop-color="#47EAE2" offset="100%"></stop>
        </linearGradient>
    </defs>
    <g id="inventory-logo" stroke="none" stroke-width="1" fill="none" fill-rule="evenodd">
        <g id="Inventory" transform="translate(341.550000, 97.450000)" fill="#3F413F" fill-rule="nonzero">
            <polygon id="Path" points="13.65 0 13.65 104.55 0 104.55 0 0"></polygon>
            <path d="M76.0409091,20.85 C86.0409091,20.85 94.1409091,23.875 100.340909,29.925 C106.540909,35.975 109.640909,44.7 109.640909,56.1 L109.640909,104.55 L96.1409091,104.55 L96.1409091,58.05 C96.1409091,49.85 94.0909091,43.575 89.9909091,39.225 C85.8909091,34.875 80.2909091,32.7 73.1909091,32.7 C65.9909091,32.7 60.2659091,34.95 56.0159091,39.45 C51.7659091,43.95 49.6409091,50.5 49.6409091,59.1 L49.6409091,104.55 L35.9909091,104.55 L35.9909091,22.35 L49.6409091,22.35 L49.6409091,34.05 C52.3409091,29.85 56.0159091,26.6 60.6659091,24.3 C65.3159091,22 70.4409091,20.85 76.0409091,20.85 Z" id="Path"></path>
            <polygon id="Path" points="161.681818 91.95 187.181818 22.35 201.731818 22.35 169.481818 104.55 153.581818 104.55 121.331818 22.35 136.031818 22.35"></polygon>
            <path d="M289.322727,60.3 C289.322727,62.9 289.172727,65.65 288.872727,68.55 L223.172727,68.55 C223.672727,76.65 226.447727,82.975 231.497727,87.525 C236.547727,92.075 242.672727,94.35 249.872727,94.35 C255.772727,94.35 260.697727,92.975 264.647727,90.225 C268.597727,87.475 271.372727,83.8 272.972727,79.2 L287.672727,79.2 C285.472727,87.1 281.072727,93.525 274.472727,98.475 C267.872727,103.425 259.672727,105.9 249.872727,105.9 C242.072727,105.9 235.097727,104.15 228.947727,100.65 C222.797727,97.15 217.972727,92.175 214.472727,85.725 C210.972727,79.275 209.222727,71.8 209.222727,63.3 C209.222727,54.8 210.922727,47.35 214.322727,40.95 C217.722727,34.55 222.497727,29.625 228.647727,26.175 C234.797727,22.725 241.872727,21 249.872727,21 C257.672727,21 264.572727,22.7 270.572727,26.1 C276.572727,29.5 281.197727,34.175 284.447727,40.125 C287.697727,46.075 289.322727,52.8 289.322727,60.3 Z M275.222727,57.45 C275.222727,52.25 274.072727,47.775 271.772727,44.025 C269.472727,40.275 266.347727,37.425 262.397727,35.475 C258.447727,33.525 254.072727,32.55 249.272727,32.55 C242.372727,32.55 236.497727,34.75 231.647727,39.15 C226.797727,43.55 224.022727,49.65 223.322727,57.45 L275.222727,57.45 Z" id="Shape"></path>
            <path d="M346.463636,20.85 C356.463636,20.85 364.563636,23.875 370.763636,29.925 C376.963636,35.975 380.063636,44.7 380.063636,56.1 L380.063636,104.55 L366.563636,104.55 L366.563636,58.05 C366.563636,49.85 364.513636,43.575 360.413636,39.225 C356.313636,34.875 350.713636,32.7 343.613636,32.7 C336.413636,32.7 330.688636,34.95 326.438636,39.45 C322.188636,43.95 320.063636,50.5 320.063636,59.1 L320.063636,104.55 L306.413636,104.55 L306.413636,22.35 L320.063636,22.35 L320.063636,34.05 C322.763636,29.85 326.438636,26.6 331.088636,24.3 C335.738636,22 340.863636,20.85 346.463636,20.85 Z" id="Path"></path>
            <path d="M418.154545,33.6 L418.154545,82.05 C418.154545,86.05 419.004545,88.875 420.704545,90.525 C422.404545,92.175 425.354545,93 429.554545,93 L439.604545,93 L439.604545,104.55 L427.304545,104.55 C419.704545,104.55 414.004545,102.8 410.204545,99.3 C406.404545,95.8 404.504545,90.05 404.504545,82.05 L404.504545,33.6 L393.854545,33.6 L393.854545,22.35 L404.504545,22.35 L404.504545,1.65 L418.154545,1.65 L418.154545,22.35 L439.604545,22.35 L439.604545,33.6 L418.154545,33.6 Z" id="Path"></path>
            <path d="M491.045454,105.9 C483.345454,105.9 476.370454,104.15 470.120454,100.65 C463.870454,97.15 458.970454,92.175 455.420454,85.725 C451.870454,79.275 450.095454,71.8 450.095454,63.3 C450.095454,54.9 451.920454,47.475 455.570454,41.025 C459.220454,34.575 464.195454,29.625 470.495454,26.175 C476.795454,22.725 483.845454,21 491.645454,21 C499.445454,21 506.495454,22.725 512.795454,26.175 C519.095454,29.625 524.070454,34.55 527.720454,40.95 C531.370454,47.35 533.195454,54.8 533.195454,63.3 C533.195454,71.8 531.320454,79.275 527.570454,85.725 C523.820454,92.175 518.745454,97.15 512.345454,100.65 C505.945454,104.15 498.845454,105.9 491.045454,105.9 Z M491.045454,93.9 C495.945454,93.9 500.545454,92.75 504.845454,90.45 C509.145454,88.15 512.620454,84.7 515.270454,80.1 C517.920454,75.5 519.245454,69.9 519.245454,63.3 C519.245454,56.7 517.945454,51.1 515.345454,46.5 C512.745454,41.9 509.345454,38.475 505.145454,36.225 C500.945454,33.975 496.395454,32.85 491.495454,32.85 C486.495454,32.85 481.920454,33.975 477.770454,36.225 C473.620454,38.475 470.295454,41.9 467.795454,46.5 C465.295454,51.1 464.045454,56.7 464.045454,63.3 C464.045454,70 465.270454,75.65 467.720454,80.25 C470.170454,84.85 473.445454,88.275 477.545454,90.525 C481.645454,92.775 486.145454,93.9 491.045454,93.9 Z" id="Shape"></path>
            <path d="M563.936364,35.7 C566.336364,31 569.761364,27.35 574.211364,24.75 C578.661364,22.15 584.086364,20.85 590.486364,20.85 L590.486364,34.95 L586.886364,34.95 C571.586364,34.95 563.936364,43.25 563.936364,59.85 L563.936364,104.55 L550.286364,104.55 L550.286364,22.35 L563.936364,22.35 L563.936364,35.7 Z" id="Path"></path>
            <polygon id="Path" points="676.127273 22.35 626.627273 143.25 612.527273 143.25 628.727273 103.65 595.577273 22.35 610.727273 22.35 636.527273 88.95 662.027273 22.35"></polygon>
        </g>
        <g id="inventory">
            <rect id="Rectangle" fill-opacity="0.15" fill="url(#linearGradient-1)" x="0" y="0" width="300" height="300" rx="66"></rect>
            <path d="M123.5,107.1 C128.3,98.7 140.4,98.7 145.2,107.1 L173.5,156.1 L201.8,205.1 C206.6,213.5 200.6,223.9 190.9,223.9 L134.3,223.9 L77.7,223.9 C68,223.9 62,213.4 66.8,205.1 L95.1,156.1 L123.5,107.1 Z" id="Path" fill="#8E4DF4" fill-rule="nonzero"></path>
            <path d="M104.5,174.4 L44.9,174.4 C34.5,174.4 26,165.9 26,155.5 L26,95.9 C26,85.5 34.5,77 44.9,77 L104.5,77 C114.9,77 123.4,85.5 123.4,95.9 L123.4,155.5 C123.4,166 114.9,174.4 104.5,174.4 Z" id="Path" fill="#47EAE2" fill-rule="nonzero"></path>
            <circle id="Oval" fill="#47EAE2" fill-rule="nonzero" cx="213.9" cy="150" r="59.4"></circle>
            <path d="M123.4,155.6 L123.4,107.4 L95.3,156.1 L84.7,174.4 L104.5,174.4 C114.9,174.4 123.4,166 123.4,155.6 Z" id="Path" fill="#530EC1" fill-rule="nonzero"></path>
            <path d="M173.4,156.1 L158.1,129.5 C155.8,135.9 154.5,142.8 154.5,150 C154.5,179.1 175.4,203.3 203.1,208.4 C202.8,207.3 202.4,206.2 201.8,205.1 L173.4,156.1 Z" id="Path" fill="#530EC1" fill-rule="nonzero"></path>
        </g>
    </g>
</svg>