<?xml version="1.0" encoding="UTF-8"?>
<svg width="1040px" height="300px" viewBox="0 0 1040 300" version="1.1" xmlns="http://www.w3.org/2000/svg" xmlns:xlink="http://www.w3.org/1999/xlink">
    <title>locations-logo</title>
    <defs>
        <linearGradient x1="100%" y1="50%" x2="1.23685784e-13%" y2="50%" id="linearGradient-1">
            <stop stop-color="#FC65EA" offset="0%"></stop>
            <stop stop-color="#530EC1" offset="51.376449%"></stop>
            <stop stop-color="#47EAE2" offset="100%"></stop>
        </linearGradient>
    </defs>
    <g id="locations-logo" stroke="none" stroke-width="1" fill="none" fill-rule="evenodd">
        <g id="Locations" transform="translate(341.550000, 87.850000)" fill="#3F413F" fill-rule="nonzero">
            <polygon id="Path" points="13.65 103.05 50.25 103.05 50.25 114.15 0 114.15 0 9.6 13.65 9.6"></polygon>
            <path d="M99.7409091,115.5 C92.0409091,115.5 85.0659091,113.75 78.8159091,110.25 C72.5659091,106.75 67.6659091,101.775 64.1159091,95.325 C60.5659091,88.875 58.7909091,81.4 58.7909091,72.9 C58.7909091,64.5 60.6159091,57.075 64.2659091,50.625 C67.9159091,44.175 72.8909091,39.225 79.1909091,35.775 C85.4909091,32.325 92.5409091,30.6 100.340909,30.6 C108.140909,30.6 115.190909,32.325 121.490909,35.775 C127.790909,39.225 132.765909,44.15 136.415909,50.55 C140.065909,56.95 141.890909,64.4 141.890909,72.9 C141.890909,81.4 140.015909,88.875 136.265909,95.325 C132.515909,101.775 127.440909,106.75 121.040909,110.25 C114.640909,113.75 107.540909,115.5 99.7409091,115.5 Z M99.7409091,103.5 C104.640909,103.5 109.240909,102.35 113.540909,100.05 C117.840909,97.75 121.315909,94.3 123.965909,89.7 C126.615909,85.1 127.940909,79.5 127.940909,72.9 C127.940909,66.3 126.640909,60.7 124.040909,56.1 C121.440909,51.5 118.040909,48.075 113.840909,45.825 C109.640909,43.575 105.090909,42.45 100.190909,42.45 C95.1909091,42.45 90.6159091,43.575 86.4659091,45.825 C82.3159091,48.075 78.9909091,51.5 76.4909091,56.1 C73.9909091,60.7 72.7409091,66.3 72.7409091,72.9 C72.7409091,79.6 73.9659091,85.25 76.4159091,89.85 C78.8659091,94.45 82.1409091,97.875 86.2409091,100.125 C90.3409091,102.375 94.8409091,103.5 99.7409091,103.5 Z" id="Shape"></path>
            <path d="M153.881818,72.9 C153.881818,64.4 155.581818,56.975 158.981818,50.625 C162.381818,44.275 167.106818,39.35 173.156818,35.85 C179.206818,32.35 186.131818,30.6 193.931818,30.6 C204.031818,30.6 212.356818,33.05 218.906818,37.95 C225.456818,42.85 229.781818,49.65 231.881818,58.35 L217.181818,58.35 C215.781818,53.35 213.056818,49.4 209.006818,46.5 C204.956818,43.6 199.931818,42.15 193.931818,42.15 C186.131818,42.15 179.831818,44.825 175.031818,50.175 C170.231818,55.525 167.831818,63.1 167.831818,72.9 C167.831818,82.8 170.231818,90.45 175.031818,95.85 C179.831818,101.25 186.131818,103.95 193.931818,103.95 C199.931818,103.95 204.931818,102.55 208.931818,99.75 C212.931818,96.95 215.681818,92.95 217.181818,87.75 L231.881818,87.75 C229.681818,96.15 225.281818,102.875 218.681818,107.925 C212.081818,112.975 203.831818,115.5 193.931818,115.5 C186.131818,115.5 179.206818,113.75 173.156818,110.25 C167.106818,106.75 162.381818,101.8 158.981818,95.4 C155.581818,89 153.881818,81.5 153.881818,72.9 Z" id="Path"></path>
            <path d="M244.022727,72.75 C244.022727,64.35 245.722727,56.975 249.122727,50.625 C252.522727,44.275 257.197727,39.35 263.147727,35.85 C269.097727,32.35 275.722727,30.6 283.022727,30.6 C290.222727,30.6 296.472727,32.15 301.772727,35.25 C307.072727,38.35 311.022727,42.25 313.622727,46.95 L313.622727,31.95 L327.422727,31.95 L327.422727,114.15 L313.622727,114.15 L313.622727,98.85 C310.922727,103.65 306.897727,107.625 301.547727,110.775 C296.197727,113.925 289.972727,115.5 282.872727,115.5 C275.572727,115.5 268.972727,113.7 263.072727,110.1 C257.172727,106.5 252.522727,101.45 249.122727,94.95 C245.722727,88.45 244.022727,81.05 244.022727,72.75 Z M313.622727,72.9 C313.622727,66.7 312.372727,61.3 309.872727,56.7 C307.372727,52.1 303.997727,48.575 299.747727,46.125 C295.497727,43.675 290.822727,42.45 285.722727,42.45 C280.622727,42.45 275.972727,43.65 271.772727,46.05 C267.572727,48.45 264.222727,51.95 261.722727,56.55 C259.222727,61.15 257.972727,66.55 257.972727,72.75 C257.972727,79.05 259.222727,84.525 261.722727,89.175 C264.222727,93.825 267.572727,97.375 271.772727,99.825 C275.972727,102.275 280.622727,103.5 285.722727,103.5 C290.822727,103.5 295.497727,102.275 299.747727,99.825 C303.997727,97.375 307.372727,93.825 309.872727,89.175 C312.372727,84.525 313.622727,79.1 313.622727,72.9 Z" id="Shape"></path>
            <path d="M366.263636,43.2 L366.263636,91.65 C366.263636,95.65 367.113636,98.475 368.813636,100.125 C370.513636,101.775 373.463636,102.6 377.663636,102.6 L387.713636,102.6 L387.713636,114.15 L375.413636,114.15 C367.813636,114.15 362.113636,112.4 358.313636,108.9 C354.513636,105.4 352.613636,99.65 352.613636,91.65 L352.613636,43.2 L341.963636,43.2 L341.963636,31.95 L352.613636,31.95 L352.613636,11.25 L366.263636,11.25 L366.263636,31.95 L387.713636,31.95 L387.713636,43.2 L366.263636,43.2 Z" id="Path"></path>
            <path d="M410.354545,18.6 C407.754545,18.6 405.554545,17.7 403.754545,15.9 C401.954545,14.1 401.054545,11.9 401.054545,9.3 C401.054545,6.7 401.954545,4.5 403.754545,2.7 C405.554545,0.9 407.754545,0 410.354545,0 C412.854545,0 414.979545,0.9 416.729545,2.7 C418.479545,4.5 419.354545,6.7 419.354545,9.3 C419.354545,11.9 418.479545,14.1 416.729545,15.9 C414.979545,17.7 412.854545,18.6 410.354545,18.6 Z M416.954545,31.95 L416.954545,114.15 L403.304545,114.15 L403.304545,31.95 L416.954545,31.95 Z" id="Shape"></path>
            <path d="M475.145454,115.5 C467.445454,115.5 460.470454,113.75 454.220454,110.25 C447.970454,106.75 443.070454,101.775 439.520454,95.325 C435.970454,88.875 434.195454,81.4 434.195454,72.9 C434.195454,64.5 436.020454,57.075 439.670454,50.625 C443.320454,44.175 448.295454,39.225 454.595454,35.775 C460.895454,32.325 467.945454,30.6 475.745454,30.6 C483.545454,30.6 490.595454,32.325 496.895454,35.775 C503.195454,39.225 508.170454,44.15 511.820454,50.55 C515.470454,56.95 517.295454,64.4 517.295454,72.9 C517.295454,81.4 515.420454,88.875 511.670454,95.325 C507.920454,101.775 502.845454,106.75 496.445454,110.25 C490.045454,113.75 482.945454,115.5 475.145454,115.5 Z M475.145454,103.5 C480.045454,103.5 484.645454,102.35 488.945454,100.05 C493.245454,97.75 496.720454,94.3 499.370454,89.7 C502.020454,85.1 503.345454,79.5 503.345454,72.9 C503.345454,66.3 502.045454,60.7 499.445454,56.1 C496.845454,51.5 493.445454,48.075 489.245454,45.825 C485.045454,43.575 480.495454,42.45 475.595454,42.45 C470.595454,42.45 466.020454,43.575 461.870454,45.825 C457.720454,48.075 454.395454,51.5 451.895454,56.1 C449.395454,60.7 448.145454,66.3 448.145454,72.9 C448.145454,79.6 449.370454,85.25 451.820454,89.85 C454.270454,94.45 457.545454,97.875 461.645454,100.125 C465.745454,102.375 470.245454,103.5 475.145454,103.5 Z" id="Shape"></path>
            <path d="M574.436364,30.45 C584.436364,30.45 592.536364,33.475 598.736364,39.525 C604.936364,45.575 608.036364,54.3 608.036364,65.7 L608.036364,114.15 L594.536364,114.15 L594.536364,67.65 C594.536364,59.45 592.486364,53.175 588.386364,48.825 C584.286364,44.475 578.686364,42.3 571.586364,42.3 C564.386364,42.3 558.661364,44.55 554.411364,49.05 C550.161364,53.55 548.036364,60.1 548.036364,68.7 L548.036364,114.15 L534.386364,114.15 L534.386364,31.95 L548.036364,31.95 L548.036364,43.65 C550.736364,39.45 554.411364,36.2 559.061364,33.9 C563.711364,31.6 568.836364,30.45 574.436364,30.45 Z" id="Path"></path>
            <path d="M658.577273,115.5 C652.277273,115.5 646.627273,114.425 641.627273,112.275 C636.627273,110.125 632.677273,107.125 629.777273,103.275 C626.877273,99.425 625.277273,95 624.977273,90 L639.077273,90 C639.477273,94.1 641.402273,97.45 644.852273,100.05 C648.302273,102.65 652.827273,103.95 658.427273,103.95 C663.627273,103.95 667.727273,102.8 670.727273,100.5 C673.727273,98.2 675.227273,95.3 675.227273,91.8 C675.227273,88.2 673.627273,85.525 670.427273,83.775 C667.227273,82.025 662.277273,80.3 655.577273,78.6 C649.477273,77 644.502273,75.375 640.652273,73.725 C636.802273,72.075 633.502273,69.625 630.752273,66.375 C628.002273,63.125 626.627273,58.85 626.627273,53.55 C626.627273,49.35 627.877273,45.5 630.377273,42 C632.877273,38.5 636.427273,35.725 641.027273,33.675 C645.627273,31.625 650.877273,30.6 656.777273,30.6 C665.877273,30.6 673.227273,32.9 678.827273,37.5 C684.427273,42.1 687.427273,48.4 687.827273,56.4 L674.177273,56.4 C673.877273,52.1 672.152273,48.65 669.002273,46.05 C665.852273,43.45 661.627273,42.15 656.327273,42.15 C651.427273,42.15 647.527273,43.2 644.627273,45.3 C641.727273,47.4 640.277273,50.15 640.277273,53.55 C640.277273,56.25 641.152273,58.475 642.902273,60.225 C644.652273,61.975 646.852273,63.375 649.502273,64.425 C652.152273,65.475 655.827273,66.65 660.527273,67.95 C666.427273,69.55 671.227273,71.125 674.927273,72.675 C678.627273,74.225 681.802273,76.55 684.452273,79.65 C687.102273,82.75 688.477273,86.8 688.577273,91.8 C688.577273,96.3 687.327273,100.35 684.827273,103.95 C682.327273,107.55 678.802273,110.375 674.252273,112.425 C669.702273,114.475 664.477273,115.5 658.577273,115.5 Z" id="Path"></path>
        </g>
        <rect id="Rectangle" fill-opacity="0.15" fill="url(#linearGradient-1)" x="0" y="0" width="300" height="300" rx="66"></rect>
        <path d="M229.578621,79.9 C216.678621,67.9 200.078621,62 183.578621,62 C167.078621,62 150.478621,67.9 137.578621,79.9 C112.278621,103.2 108.978621,140.8 127.378621,167.9 L172.778621,230.6 C176.478621,235.6 179.378621,237.3 183.678621,237.6 C187.978621,237.3 190.878621,235.7 194.578621,230.6 L239.978621,167.9 C258.278621,140.7 254.878621,103.2 229.578621,79.9 Z" id="Path" fill="#FC65EA" fill-rule="nonzero"></path>
        <path d="M162.878621,79.9 C149.978621,67.9 133.378621,62 116.878621,62 C100.378621,62 83.7786209,67.9 70.8786209,79.9 C45.5786209,103.2 42.2786209,140.8 60.6786209,167.9 L106.078621,230.6 C109.778621,235.6 112.678621,237.3 116.978621,237.6 C121.278621,237.3 124.178621,235.7 127.878621,230.6 L173.278621,167.9 C191.578621,140.7 188.178621,103.2 162.878621,79.9 Z" id="Path" fill="#47EAE2" fill-rule="nonzero"></path>
        <path d="M127.278621,167.9 L150.178621,199.5 L173.078621,167.9 C191.478621,140.7 188.078621,103.2 162.878621,79.9 C158.978621,76.3 154.678621,73.2 150.178621,70.7 C145.678621,73.2 141.378621,76.3 137.478621,79.9 C112.278621,103.2 108.878621,140.7 127.278621,167.9 Z" id="Path" fill="#530EC1" fill-rule="nonzero"></path>
    </g>
</svg>