<?xml version="1.0" encoding="UTF-8"?>
<svg width="300px" height="300px" viewBox="0 0 300 300" version="1.1" xmlns="http://www.w3.org/2000/svg" xmlns:xlink="http://www.w3.org/1999/xlink">
    <title>locations-icon</title>
    <defs>
        <linearGradient x1="100%" y1="50%" x2="1.23685784e-13%" y2="50%" id="linearGradient-1">
            <stop stop-color="#FC65EA" offset="0%"></stop>
            <stop stop-color="#530EC1" offset="51.376449%"></stop>
            <stop stop-color="#47EAE2" offset="100%"></stop>
        </linearGradient>
    </defs>
    <g id="locations-icon" stroke="none" stroke-width="1" fill="none" fill-rule="evenodd">
        <rect id="Rectangle" fill-opacity="0.15" fill="url(#linearGradient-1)" x="0" y="0" width="300" height="300"></rect>
        <path d="M229.578621,79.9 C216.678621,67.9 200.078621,62 183.578621,62 C167.078621,62 150.478621,67.9 137.578621,79.9 C112.278621,103.2 108.978621,140.8 127.378621,167.9 L172.778621,230.6 C176.478621,235.6 179.378621,237.3 183.678621,237.6 C187.978621,237.3 190.878621,235.7 194.578621,230.6 L239.978621,167.9 C258.278621,140.7 254.878621,103.2 229.578621,79.9 Z" id="Path" fill="#FC65EA" fill-rule="nonzero"></path>
        <path d="M162.878621,79.9 C149.978621,67.9 133.378621,62 116.878621,62 C100.378621,62 83.7786209,67.9 70.8786209,79.9 C45.5786209,103.2 42.2786209,140.8 60.6786209,167.9 L106.078621,230.6 C109.778621,235.6 112.678621,237.3 116.978621,237.6 C121.278621,237.3 124.178621,235.7 127.878621,230.6 L173.278621,167.9 C191.578621,140.7 188.178621,103.2 162.878621,79.9 Z" id="Path" fill="#47EAE2" fill-rule="nonzero"></path>
        <path d="M127.278621,167.9 L150.178621,199.5 L173.078621,167.9 C191.478621,140.7 188.078621,103.2 162.878621,79.9 C158.978621,76.3 154.678621,73.2 150.178621,70.7 C145.678621,73.2 141.378621,76.3 137.478621,79.9 C112.278621,103.2 108.878621,140.7 127.278621,167.9 Z" id="Path" fill="#530EC1" fill-rule="nonzero"></path>
    </g>
</svg>