<?xml version="1.0" encoding="UTF-8"?>
<svg width="1040px" height="300px" viewBox="0 0 1040 300" version="1.1" xmlns="http://www.w3.org/2000/svg" xmlns:xlink="http://www.w3.org/1999/xlink">
    <title>logs-logo</title>
    <defs>
        <linearGradient x1="100%" y1="50%" x2="1.23685784e-13%" y2="50%" id="linearGradient-1">
            <stop stop-color="#20E7A8" offset="0%"></stop>
            <stop stop-color="#530EC1" offset="51.376449%"></stop>
            <stop stop-color="#47EAE2" offset="100%"></stop>
        </linearGradient>
    </defs>
    <g id="logs-logo" stroke="none" stroke-width="1" fill="none" fill-rule="evenodd">
        <g id="Logs" transform="translate(341.550000, 97.450000)" fill="#3F413F" fill-rule="nonzero">
            <polygon id="Path" points="13.65 93.45 50.25 93.45 50.25 104.55 0 104.55 0 0 13.65 0"></polygon>
            <path d="M99.7409091,105.9 C92.0409091,105.9 85.0659091,104.15 78.8159091,100.65 C72.5659091,97.15 67.6659091,92.175 64.1159091,85.725 C60.5659091,79.275 58.7909091,71.8 58.7909091,63.3 C58.7909091,54.9 60.6159091,47.475 64.2659091,41.025 C67.9159091,34.575 72.8909091,29.625 79.1909091,26.175 C85.4909091,22.725 92.5409091,21 100.340909,21 C108.140909,21 115.190909,22.725 121.490909,26.175 C127.790909,29.625 132.765909,34.55 136.415909,40.95 C140.065909,47.35 141.890909,54.8 141.890909,63.3 C141.890909,71.8 140.015909,79.275 136.265909,85.725 C132.515909,92.175 127.440909,97.15 121.040909,100.65 C114.640909,104.15 107.540909,105.9 99.7409091,105.9 Z M99.7409091,93.9 C104.640909,93.9 109.240909,92.75 113.540909,90.45 C117.840909,88.15 121.315909,84.7 123.965909,80.1 C126.615909,75.5 127.940909,69.9 127.940909,63.3 C127.940909,56.7 126.640909,51.1 124.040909,46.5 C121.440909,41.9 118.040909,38.475 113.840909,36.225 C109.640909,33.975 105.090909,32.85 100.190909,32.85 C95.1909091,32.85 90.6159091,33.975 86.4659091,36.225 C82.3159091,38.475 78.9909091,41.9 76.4909091,46.5 C73.9909091,51.1 72.7409091,56.7 72.7409091,63.3 C72.7409091,70 73.9659091,75.65 76.4159091,80.25 C78.8659091,84.85 82.1409091,88.275 86.2409091,90.525 C90.3409091,92.775 94.8409091,93.9 99.7409091,93.9 Z" id="Shape"></path>
            <path d="M192.881818,21 C199.981818,21 206.206818,22.55 211.556818,25.65 C216.906818,28.75 220.881818,32.65 223.481818,37.35 L223.481818,22.35 L237.281818,22.35 L237.281818,106.35 C237.281818,113.85 235.681818,120.525 232.481818,126.375 C229.281818,132.225 224.706818,136.8 218.756818,140.1 C212.806818,143.4 205.881818,145.05 197.981818,145.05 C187.181818,145.05 178.181818,142.5 170.981818,137.4 C163.781818,132.3 159.531818,125.35 158.231818,116.55 L171.731818,116.55 C173.231818,121.55 176.331818,125.575 181.031818,128.625 C185.731818,131.675 191.381818,133.2 197.981818,133.2 C205.481818,133.2 211.606818,130.85 216.356818,126.15 C221.106818,121.45 223.481818,114.85 223.481818,106.35 L223.481818,89.1 C220.781818,93.9 216.781818,97.9 211.481818,101.1 C206.181818,104.3 199.981818,105.9 192.881818,105.9 C185.581818,105.9 178.956818,104.1 173.006818,100.5 C167.056818,96.9 162.381818,91.85 158.981818,85.35 C155.581818,78.85 153.881818,71.45 153.881818,63.15 C153.881818,54.75 155.581818,47.375 158.981818,41.025 C162.381818,34.675 167.056818,29.75 173.006818,26.25 C178.956818,22.75 185.581818,21 192.881818,21 Z M223.481818,63.3 C223.481818,57.1 222.231818,51.7 219.731818,47.1 C217.231818,42.5 213.856818,38.975 209.606818,36.525 C205.356818,34.075 200.681818,32.85 195.581818,32.85 C190.481818,32.85 185.831818,34.05 181.631818,36.45 C177.431818,38.85 174.081818,42.35 171.581818,46.95 C169.081818,51.55 167.831818,56.95 167.831818,63.15 C167.831818,69.45 169.081818,74.925 171.581818,79.575 C174.081818,84.225 177.431818,87.775 181.631818,90.225 C185.831818,92.675 190.481818,93.9 195.581818,93.9 C200.681818,93.9 205.356818,92.675 209.606818,90.225 C213.856818,87.775 217.231818,84.225 219.731818,79.575 C222.231818,74.925 223.481818,69.5 223.481818,63.3 Z" id="Shape"></path>
            <path d="M288.572727,105.9 C282.272727,105.9 276.622727,104.825 271.622727,102.675 C266.622727,100.525 262.672727,97.525 259.772727,93.675 C256.872727,89.825 255.272727,85.4 254.972727,80.4 L269.072727,80.4 C269.472727,84.5 271.397727,87.85 274.847727,90.45 C278.297727,93.05 282.822727,94.35 288.422727,94.35 C293.622727,94.35 297.722727,93.2 300.722727,90.9 C303.722727,88.6 305.222727,85.7 305.222727,82.2 C305.222727,78.6 303.622727,75.925 300.422727,74.175 C297.222727,72.425 292.272727,70.7 285.572727,69 C279.472727,67.4 274.497727,65.775 270.647727,64.125 C266.797727,62.475 263.497727,60.025 260.747727,56.775 C257.997727,53.525 256.622727,49.25 256.622727,43.95 C256.622727,39.75 257.872727,35.9 260.372727,32.4 C262.872727,28.9 266.422727,26.125 271.022727,24.075 C275.622727,22.025 280.872727,21 286.772727,21 C295.872727,21 303.222727,23.3 308.822727,27.9 C314.422727,32.5 317.422727,38.8 317.822727,46.8 L304.172727,46.8 C303.872727,42.5 302.147727,39.05 298.997727,36.45 C295.847727,33.85 291.622727,32.55 286.322727,32.55 C281.422727,32.55 277.522727,33.6 274.622727,35.7 C271.722727,37.8 270.272727,40.55 270.272727,43.95 C270.272727,46.65 271.147727,48.875 272.897727,50.625 C274.647727,52.375 276.847727,53.775 279.497727,54.825 C282.147727,55.875 285.822727,57.05 290.522727,58.35 C296.422727,59.95 301.222727,61.525 304.922727,63.075 C308.622727,64.625 311.797727,66.95 314.447727,70.05 C317.097727,73.15 318.472727,77.2 318.572727,82.2 C318.572727,86.7 317.322727,90.75 314.822727,94.35 C312.322727,97.95 308.797727,100.775 304.247727,102.825 C299.697727,104.875 294.472727,105.9 288.572727,105.9 Z" id="Path"></path>
        </g>
        <rect id="Rectangle" fill-opacity="0.15" fill="url(#linearGradient-1)" x="0" y="0" width="300" height="300" rx="66"></rect>
        <path d="M178.7,231.6 L78.7,231.6 C73.4,231.6 69,227.3 69,221.9 L69,78.7 C69,73.4 73.3,69 78.7,69 L145.9,69 C151,69 155.9,71 159.6,74.6 L182.5,96.8 C186.3,100.5 188.5,105.6 188.5,110.9 L188.5,221.9 C188.4,227.3 184.1,231.6 178.7,231.6 Z" id="Path" fill="#A584F2" fill-rule="nonzero"></path>
        <rect id="Rectangle" fill="#20E7A8" fill-rule="nonzero" x="123.4" y="168.7" width="106.7" height="25.5"></rect>
        <rect id="Rectangle" fill="#530EC1" fill-rule="nonzero" x="123.4" y="168.7" width="65" height="25.5"></rect>
        <rect id="Rectangle" fill="#20E7A8" fill-rule="nonzero" x="123.4" y="124.8" width="92" height="25.5"></rect>
        <rect id="Rectangle" fill="#530EC1" fill-rule="nonzero" x="123.4" y="124.8" width="65" height="25.5"></rect>
    </g>
</svg>