<?xml version="1.0" encoding="UTF-8"?>
<svg width="1040px" height="300px" viewBox="0 0 1040 300" version="1.1" xmlns="http://www.w3.org/2000/svg" xmlns:xlink="http://www.w3.org/1999/xlink">
    <title>receive-logo-dark-mode</title>
    <defs>
        <linearGradient x1="100%" y1="50%" x2="1.23685784e-13%" y2="50%" id="linearGradient-1">
            <stop stop-color="#8E4DF4" offset="0%"></stop>
            <stop stop-color="#530EC1" offset="51.376449%"></stop>
            <stop stop-color="#47EAE2" offset="100%"></stop>
        </linearGradient>
    </defs>
    <g id="receive-logo-dark-mode" stroke="none" stroke-width="1" fill="none" fill-rule="evenodd">
        <g id="Receive" transform="translate(341.550000, 87.850000)" fill="#DCDCDC" fill-rule="nonzero">
            <path d="M55.05,114.15 L30.15,71.4 L13.65,71.4 L13.65,114.15 L0,114.15 L0,9.6 L33.75,9.6 C41.65,9.6 48.325,10.95 53.775,13.65 C59.225,16.35 63.3,20 66,24.6 C68.7,29.2 70.05,34.45 70.05,40.35 C70.05,47.55 67.975,53.9 63.825,59.4 C59.675,64.9 53.45,68.55 45.15,70.35 L71.4,114.15 L55.05,114.15 Z M13.65,60.45 L33.75,60.45 C41.15,60.45 46.7,58.625 50.4,54.975 C54.1,51.325 55.95,46.45 55.95,40.35 C55.95,34.15 54.125,29.35 50.475,25.95 C46.825,22.55 41.25,20.85 33.75,20.85 L13.65,20.85 L13.65,60.45 Z" id="Shape"></path>
            <path d="M165.290909,69.9 C165.290909,72.5 165.140909,75.25 164.840909,78.15 L99.1409091,78.15 C99.6409091,86.25 102.415909,92.575 107.465909,97.125 C112.515909,101.675 118.640909,103.95 125.840909,103.95 C131.740909,103.95 136.665909,102.575 140.615909,99.825 C144.565909,97.075 147.340909,93.4 148.940909,88.8 L163.640909,88.8 C161.440909,96.7 157.040909,103.125 150.440909,108.075 C143.840909,113.025 135.640909,115.5 125.840909,115.5 C118.040909,115.5 111.065909,113.75 104.915909,110.25 C98.7659091,106.75 93.9409091,101.775 90.4409091,95.325 C86.9409091,88.875 85.1909091,81.4 85.1909091,72.9 C85.1909091,64.4 86.8909091,56.95 90.2909091,50.55 C93.6909091,44.15 98.4659091,39.225 104.615909,35.775 C110.765909,32.325 117.840909,30.6 125.840909,30.6 C133.640909,30.6 140.540909,32.3 146.540909,35.7 C152.540909,39.1 157.165909,43.775 160.415909,49.725 C163.665909,55.675 165.290909,62.4 165.290909,69.9 Z M151.190909,67.05 C151.190909,61.85 150.040909,57.375 147.740909,53.625 C145.440909,49.875 142.315909,47.025 138.365909,45.075 C134.415909,43.125 130.040909,42.15 125.240909,42.15 C118.340909,42.15 112.465909,44.35 107.615909,48.75 C102.765909,53.15 99.9909091,59.25 99.2909091,67.05 L151.190909,67.05 Z" id="Shape"></path>
            <path d="M177.281818,72.9 C177.281818,64.4 178.981818,56.975 182.381818,50.625 C185.781818,44.275 190.506818,39.35 196.556818,35.85 C202.606818,32.35 209.531818,30.6 217.331818,30.6 C227.431818,30.6 235.756818,33.05 242.306818,37.95 C248.856818,42.85 253.181818,49.65 255.281818,58.35 L240.581818,58.35 C239.181818,53.35 236.456818,49.4 232.406818,46.5 C228.356818,43.6 223.331818,42.15 217.331818,42.15 C209.531818,42.15 203.231818,44.825 198.431818,50.175 C193.631818,55.525 191.231818,63.1 191.231818,72.9 C191.231818,82.8 193.631818,90.45 198.431818,95.85 C203.231818,101.25 209.531818,103.95 217.331818,103.95 C223.331818,103.95 228.331818,102.55 232.331818,99.75 C236.331818,96.95 239.081818,92.95 240.581818,87.75 L255.281818,87.75 C253.081818,96.15 248.681818,102.875 242.081818,107.925 C235.481818,112.975 227.231818,115.5 217.331818,115.5 C209.531818,115.5 202.606818,113.75 196.556818,110.25 C190.506818,106.75 185.781818,101.8 182.381818,95.4 C178.981818,89 177.281818,81.5 177.281818,72.9 Z" id="Path"></path>
            <path d="M347.522727,69.9 C347.522727,72.5 347.372727,75.25 347.072727,78.15 L281.372727,78.15 C281.872727,86.25 284.647727,92.575 289.697727,97.125 C294.747727,101.675 300.872727,103.95 308.072727,103.95 C313.972727,103.95 318.897727,102.575 322.847727,99.825 C326.797727,97.075 329.572727,93.4 331.172727,88.8 L345.872727,88.8 C343.672727,96.7 339.272727,103.125 332.672727,108.075 C326.072727,113.025 317.872727,115.5 308.072727,115.5 C300.272727,115.5 293.297727,113.75 287.147727,110.25 C280.997727,106.75 276.172727,101.775 272.672727,95.325 C269.172727,88.875 267.422727,81.4 267.422727,72.9 C267.422727,64.4 269.122727,56.95 272.522727,50.55 C275.922727,44.15 280.697727,39.225 286.847727,35.775 C292.997727,32.325 300.072727,30.6 308.072727,30.6 C315.872727,30.6 322.772727,32.3 328.772727,35.7 C334.772727,39.1 339.397727,43.775 342.647727,49.725 C345.897727,55.675 347.522727,62.4 347.522727,69.9 Z M333.422727,67.05 C333.422727,61.85 332.272727,57.375 329.972727,53.625 C327.672727,49.875 324.547727,47.025 320.597727,45.075 C316.647727,43.125 312.272727,42.15 307.472727,42.15 C300.572727,42.15 294.697727,44.35 289.847727,48.75 C284.997727,53.15 282.222727,59.25 281.522727,67.05 L333.422727,67.05 Z" id="Shape"></path>
            <path d="M371.663636,18.6 C369.063636,18.6 366.863636,17.7 365.063636,15.9 C363.263636,14.1 362.363636,11.9 362.363636,9.3 C362.363636,6.7 363.263636,4.5 365.063636,2.7 C366.863636,0.9 369.063636,0 371.663636,0 C374.163636,0 376.288636,0.9 378.038636,2.7 C379.788636,4.5 380.663636,6.7 380.663636,9.3 C380.663636,11.9 379.788636,14.1 378.038636,15.9 C376.288636,17.7 374.163636,18.6 371.663636,18.6 Z M378.263636,31.95 L378.263636,114.15 L364.613636,114.15 L364.613636,31.95 L378.263636,31.95 Z" id="Shape"></path>
            <polygon id="Path" points="431.204545 101.55 456.704545 31.95 471.254545 31.95 439.004545 114.15 423.104545 114.15 390.854545 31.95 405.554545 31.95"></polygon>
            <path d="M558.845454,69.9 C558.845454,72.5 558.695454,75.25 558.395454,78.15 L492.695454,78.15 C493.195454,86.25 495.970454,92.575 501.020454,97.125 C506.070454,101.675 512.195454,103.95 519.395454,103.95 C525.295454,103.95 530.220454,102.575 534.170454,99.825 C538.120454,97.075 540.895454,93.4 542.495454,88.8 L557.195454,88.8 C554.995454,96.7 550.595454,103.125 543.995454,108.075 C537.395454,113.025 529.195454,115.5 519.395454,115.5 C511.595454,115.5 504.620454,113.75 498.470454,110.25 C492.320454,106.75 487.495454,101.775 483.995454,95.325 C480.495454,88.875 478.745454,81.4 478.745454,72.9 C478.745454,64.4 480.445454,56.95 483.845454,50.55 C487.245454,44.15 492.020454,39.225 498.170454,35.775 C504.320454,32.325 511.395454,30.6 519.395454,30.6 C527.195454,30.6 534.095454,32.3 540.095454,35.7 C546.095454,39.1 550.720454,43.775 553.970454,49.725 C557.220454,55.675 558.845454,62.4 558.845454,69.9 Z M544.745454,67.05 C544.745454,61.85 543.595454,57.375 541.295454,53.625 C538.995454,49.875 535.870454,47.025 531.920454,45.075 C527.970454,43.125 523.595454,42.15 518.795454,42.15 C511.895454,42.15 506.020454,44.35 501.170454,48.75 C496.320454,53.15 493.545454,59.25 492.845454,67.05 L544.745454,67.05 Z" id="Shape"></path>
        </g>
        <rect id="Rectangle" fill-opacity="0.15" fill="url(#linearGradient-1)" x="0" y="0" width="300" height="300" rx="66"></rect>
        <path d="M167.2,233 L85.2,233 C77.9,233 72,227.1 72,219.8 L72,80.2 C72,72.9 77.9,67 85.2,67 L167.2,67 C174.5,67 180.4,72.9 180.4,80.2 L180.4,219.8 C180.4,227 174.5,233 167.2,233 Z" id="Path" fill="#47EAE2" fill-rule="nonzero"></path>
        <path d="M229,170.7 L229,129.2 C229,124.4 226.5,120 222.3,117.6 L186.3,96.8 C182.2,94.4 177.1,94.4 173,96.8 L137,117.6 C132.9,120 130.3,124.4 130.3,129.2 L130.3,170.7 C130.3,175.5 132.8,179.9 137,182.3 L173,203.1 C177.1,205.5 182.2,205.5 186.3,203.1 L222.3,182.3 C226.4,179.9 229,175.5 229,170.7 Z" id="Path" fill="#8E4DF4" fill-rule="nonzero"></path>
        <path d="M180.4,204.8 L180.4,95.1 C177.9,95 175.3,95.5 173,96.8 L137,117.6 C132.9,120 130.3,124.4 130.3,129.2 L130.3,170.7 C130.3,175.5 132.8,179.9 137,182.3 L173,203.1 C175.2,204.4 177.8,204.9 180.4,204.8 Z" id="Path" fill="#530EC1" fill-rule="nonzero"></path>
    </g>
</svg>