<?xml version="1.0" encoding="UTF-8"?>
<svg width="1081px" height="300px" viewBox="0 0 1081 300" version="1.1" xmlns="http://www.w3.org/2000/svg" xmlns:xlink="http://www.w3.org/1999/xlink">
    <title>settings-logo-dark-mode</title>
    <defs>
        <linearGradient x1="1.32272665e-14%" y1="100%" x2="100%" y2="-1.64365049e-14%" id="linearGradient-1">
            <stop stop-color="#DD55F9" offset="0%"></stop>
            <stop stop-color="#530EC1" offset="50.4208062%"></stop>
            <stop stop-color="#20E7A8" offset="100%"></stop>
        </linearGradient>
    </defs>
    <g id="settings-logo-dark-mode" stroke="none" stroke-width="1" fill="none" fill-rule="evenodd">
        <g id="Settings" transform="translate(337.350000, 87.100000)" fill="#DCDCDC" fill-rule="nonzero">
            <path d="M70.5,87.45 C70.5,92.45 69.3,97.1 66.9,101.4 C64.5,105.7 60.85,109.2 55.95,111.9 C51.05,114.6 45,115.95 37.8,115.95 C30.8,115.95 24.575,114.675 19.125,112.125 C13.675,109.575 9.325,106.075 6.075,101.625 C2.825,97.175 0.95,92.1 0.45,86.4 L15,86.4 C15.3,89.4 16.325,92.325 18.075,95.175 C19.825,98.025 22.325,100.375 25.575,102.225 C28.825,104.075 32.75,105 37.35,105 C43.35,105 47.95,103.4 51.15,100.2 C54.35,97 55.95,92.9 55.95,87.9 C55.95,83.6 54.825,80.1 52.575,77.4 C50.325,74.7 47.55,72.575 44.25,71.025 C40.95,69.475 36.45,67.8 30.75,66 C24.05,63.8 18.675,61.725 14.625,59.775 C10.575,57.825 7.125,54.9 4.275,51 C1.425,47.1 0,41.95 0,35.55 C0,30.05 1.325,25.2 3.975,21 C6.625,16.8 10.425,13.55 15.375,11.25 C20.325,8.95 26.15,7.8 32.85,7.8 C43.25,7.8 51.5,10.325 57.6,15.375 C63.7,20.425 67.25,26.85 68.25,34.65 L53.55,34.65 C52.75,30.45 50.6,26.75 47.1,23.55 C43.6,20.35 38.85,18.75 32.85,18.75 C27.35,18.75 22.95,20.175 19.65,23.025 C16.35,25.875 14.7,29.9 14.7,35.1 C14.7,39.2 15.775,42.525 17.925,45.075 C20.075,47.625 22.75,49.625 25.95,51.075 C29.15,52.525 33.55,54.15 39.15,55.95 C45.95,58.15 51.425,60.25 55.575,62.25 C59.725,64.25 63.25,67.275 66.15,71.325 C69.05,75.375 70.5,80.75 70.5,87.45 Z" id="Path"></path>
            <path d="M163.640909,69.15 C163.640909,72.05 163.440909,74.55 163.040909,76.65 L97.1909091,76.65 C97.4909091,86.05 100.165909,93.1 105.215909,97.8 C110.265909,102.5 116.440909,104.85 123.740909,104.85 C130.340909,104.85 135.865909,103.175 140.315909,99.825 C144.765909,96.475 147.490909,92 148.490909,86.4 L163.040909,86.4 C162.040909,92.1 159.815909,97.2 156.365909,101.7 C152.915909,106.2 148.440909,109.7 142.940909,112.2 C137.440909,114.7 131.240909,115.95 124.340909,115.95 C116.440909,115.95 109.440909,114.25 103.340909,110.85 C97.2409091,107.45 92.4659091,102.575 89.0159091,96.225 C85.5659091,89.875 83.8409091,82.4 83.8409091,73.8 C83.8409091,65.2 85.5659091,57.7 89.0159091,51.3 C92.4659091,44.9 97.2409091,40 103.340909,36.6 C109.440909,33.2 116.440909,31.5 124.340909,31.5 C132.340909,31.5 139.315909,33.2 145.265909,36.6 C151.215909,40 155.765909,44.55 158.915909,50.25 C162.065909,55.95 163.640909,62.25 163.640909,69.15 Z M149.840909,70.05 C150.140909,63.95 149.140909,58.85 146.840909,54.75 C144.540909,50.65 141.390909,47.6 137.390909,45.6 C133.390909,43.6 129.040909,42.6 124.340909,42.6 C116.840909,42.6 110.540909,44.925 105.440909,49.575 C100.340909,54.225 97.5909091,61.05 97.1909091,70.05 L149.840909,70.05 Z" id="Shape"></path>
            <path d="M219.881818,102.9 L219.881818,114.9 L209.681818,114.9 C201.281818,114.9 195.006818,112.9 190.856818,108.9 C186.706818,104.9 184.631818,98.2 184.631818,88.8 L184.631818,44.4 L172.331818,44.4 L172.331818,32.55 L184.631818,32.55 L184.631818,12 L198.431818,12 L198.431818,32.55 L219.731818,32.55 L219.731818,44.4 L198.431818,44.4 L198.431818,89.1 C198.431818,94.4 199.406818,98.025 201.356818,99.975 C203.306818,101.925 206.681818,102.9 211.481818,102.9 L219.881818,102.9 Z" id="Path"></path>
            <path d="M274.922727,102.9 L274.922727,114.9 L264.722727,114.9 C256.322727,114.9 250.047727,112.9 245.897727,108.9 C241.747727,104.9 239.672727,98.2 239.672727,88.8 L239.672727,44.4 L227.372727,44.4 L227.372727,32.55 L239.672727,32.55 L239.672727,12 L253.472727,12 L253.472727,32.55 L274.772727,32.55 L274.772727,44.4 L253.472727,44.4 L253.472727,89.1 C253.472727,94.4 254.447727,98.025 256.397727,99.975 C258.347727,101.925 261.722727,102.9 266.522727,102.9 L274.922727,102.9 Z" id="Path"></path>
            <path d="M288.263636,8.4 C288.263636,5.9 289.113636,3.875 290.813636,2.325 C292.513636,0.775 294.763636,0 297.563636,0 C300.363636,0 302.613636,0.775 304.313636,2.325 C306.013636,3.875 306.863636,5.9 306.863636,8.4 C306.863636,10.9 306.013636,12.925 304.313636,14.475 C302.613636,16.025 300.363636,16.8 297.563636,16.8 C294.763636,16.8 292.513636,16.025 290.813636,14.475 C289.113636,12.925 288.263636,10.9 288.263636,8.4 Z M304.313636,32.55 L304.313636,114.9 L290.663636,114.9 L290.663636,32.55 L304.313636,32.55 Z" id="Shape"></path>
            <path d="M368.654545,31.2 C378.254545,31.2 386.004545,34.275 391.904545,40.425 C397.804545,46.575 400.754545,55.45 400.754545,67.05 L400.754545,114.9 L387.104545,114.9 L387.104545,68.25 C387.104545,60.05 385.004545,53.75 380.804545,49.35 C376.604545,44.95 370.904545,42.75 363.704545,42.75 C356.204545,42.75 350.204545,45.175 345.704545,50.025 C341.204545,54.875 338.954545,61.95 338.954545,71.25 L338.954545,114.9 L325.304545,114.9 L325.304545,32.55 L338.954545,32.55 L338.954545,52.05 C341.054545,45.35 344.779545,40.2 350.129545,36.6 C355.479545,33 361.654545,31.2 368.654545,31.2 Z" id="Path"></path>
            <path d="M454.595454,31.5 C462.595454,31.5 469.370454,33.5 474.920454,37.5 C480.470454,41.5 484.345454,46.85 486.545454,53.55 L486.545454,32.55 L500.195454,32.55 L500.195454,116.25 C500.195454,123.85 498.595454,130.6 495.395454,136.5 C492.195454,142.4 487.695454,147 481.895454,150.3 C476.095454,153.6 469.345454,155.25 461.645454,155.25 C450.545454,155.25 441.495454,152.575 434.495454,147.225 C427.495454,141.875 423.045454,134.65 421.145454,125.55 L434.645454,125.55 C436.245454,131.05 439.270454,135.375 443.720454,138.525 C448.170454,141.675 453.895454,143.25 460.895454,143.25 C468.295454,143.25 474.420454,140.875 479.270454,136.125 C484.120454,131.375 486.545454,124.75 486.545454,116.25 L486.545454,93.9 C484.345454,100.6 480.470454,105.95 474.920454,109.95 C469.370454,113.95 462.595454,115.95 454.595454,115.95 C447.295454,115.95 440.795454,114.25 435.095454,110.85 C429.395454,107.45 424.920454,102.575 421.670454,96.225 C418.420454,89.875 416.795454,82.4 416.795454,73.8 C416.795454,65.2 418.420454,57.7 421.670454,51.3 C424.920454,44.9 429.395454,40 435.095454,36.6 C440.795454,33.2 447.295454,31.5 454.595454,31.5 Z M458.495454,43.65 C450.095454,43.65 443.370454,46.325 438.320454,51.675 C433.270454,57.025 430.745454,64.4 430.745454,73.8 C430.745454,83.2 433.270454,90.575 438.320454,95.925 C443.370454,101.275 450.095454,103.95 458.495454,103.95 C463.895454,103.95 468.720454,102.7 472.970454,100.2 C477.220454,97.7 480.545454,94.175 482.945454,89.625 C485.345454,85.075 486.545454,79.8 486.545454,73.8 C486.545454,67.8 485.345454,62.5 482.945454,57.9 C480.545454,53.3 477.220454,49.775 472.970454,47.325 C468.720454,44.875 463.895454,43.65 458.495454,43.65 Z" id="Shape"></path>
            <path d="M546.836364,31.5 C556.136364,31.5 563.611364,33.925 569.261364,38.775 C574.911364,43.625 578.336364,50.15 579.536364,58.35 L566.486364,58.35 C565.886364,53.45 563.861364,49.425 560.411364,46.275 C556.961364,43.125 552.336364,41.55 546.536364,41.55 C541.636364,41.55 537.811364,42.725 535.061364,45.075 C532.311364,47.425 530.936364,50.6 530.936364,54.6 C530.936364,57.6 531.861364,60.025 533.711364,61.875 C535.561364,63.725 537.861364,65.125 540.611364,66.075 C543.361364,67.025 547.136364,68.05 551.936364,69.15 C558.036364,70.55 562.961364,71.975 566.711364,73.425 C570.461364,74.875 573.661364,77.2 576.311364,80.4 C578.961364,83.6 580.286364,87.9 580.286364,93.3 C580.286364,100 577.761364,105.45 572.711364,109.65 C567.661364,113.85 560.936364,115.95 552.536364,115.95 C542.736364,115.95 534.736364,113.6 528.536364,108.9 C522.336364,104.2 518.686364,97.65 517.586364,89.25 L530.786364,89.25 C531.286364,94.25 533.461364,98.3 537.311364,101.4 C541.161364,104.5 546.236364,106.05 552.536364,106.05 C557.236364,106.05 560.911364,104.85 563.561364,102.45 C566.211364,100.05 567.536364,96.9 567.536364,93 C567.536364,89.8 566.586364,87.25 564.686364,85.35 C562.786364,83.45 560.436364,82 557.636364,81 C554.836364,80 550.986364,78.95 546.086364,77.85 C539.986364,76.45 535.111364,75.05 531.461364,73.65 C527.811364,72.25 524.711364,70.025 522.161364,66.975 C519.611364,63.925 518.336364,59.8 518.336364,54.6 C518.336364,47.7 520.886364,42.125 525.986364,37.875 C531.086364,33.625 538.036364,31.5 546.836364,31.5 Z" id="Path"></path>
        </g>
        <rect id="Rectangle" fill-opacity="0.15" fill="url(#linearGradient-1)" x="0" y="0" width="300" height="300" rx="66"></rect>
        <g id="settings_icon" transform="translate(62.000000, 60.000000)" fill-rule="nonzero">
            <path d="M163.333333,108.9 L80.2333333,108.9 C73.1333333,108.9 67.3333333,103.1 67.3333333,96 L67.3333333,12.9 C67.3333333,5.8 73.1333333,0 80.2333333,0 L163.333333,0 C170.433333,0 176.233333,5.8 176.233333,12.9 L176.233333,96 C176.233333,103.1 170.433333,108.9 163.333333,108.9 Z" id="Path" fill="#20E7A8"></path>
            <path d="M130.933333,127.1 L125.133333,123.7 C122.433333,122.2 121.033333,119.2 121.433333,116.1 C121.733333,113.7 121.933333,111.3 121.933333,108.8 C121.933333,106.3 121.733333,103.9 121.433333,101.5 C121.033333,98.5 122.433333,95.5 125.133333,93.9 L130.933333,90.5 C134.533333,88.4 135.733333,83.9 133.633333,80.3 L125.133333,65.5 C123.033333,61.9 118.533333,60.7 114.933333,62.8 L109.133333,66.2 C106.433333,67.7 103.133333,67.5 100.733333,65.6 C96.8333333,62.6 92.6333333,60.1 88.0333333,58.3 C85.2333333,57.1 83.3333333,54.4 83.3333333,51.4 L83.3333333,44.7 C83.3333333,40.6 80.0333333,37.2 75.8333333,37.2 L58.8333333,37.2 C54.7333333,37.2 51.3333333,40.5 51.3333333,44.7 L51.3333333,51.4 C51.3333333,54.5 49.4333333,57.2 46.6333333,58.3 C42.0333333,60.2 37.8333333,62.7 33.9333333,65.6 C31.5333333,67.5 28.2333333,67.8 25.5333333,66.2 L19.7333333,62.8 C16.1333333,60.7 11.5333333,62 9.53333333,65.5 L1.03333333,80.4 C-1.06666667,84 0.233333333,88.6 3.73333333,90.6 L9.53333333,94 C12.2333333,95.5 13.6333333,98.5 13.2333333,101.6 C12.9333333,104 12.7333333,106.4 12.7333333,108.9 C12.7333333,111.4 12.9333333,113.8 13.2333333,116.2 C13.6333333,119.2 12.2333333,122.2 9.53333333,123.8 L3.73333333,127.2 C0.133333333,129.3 -1.06666667,133.8 1.03333333,137.4 L9.53333333,152.2 C11.6333333,155.8 16.1333333,157 19.7333333,154.9 L25.5333333,151.5 C28.2333333,150 31.5333333,150.2 33.9333333,152.1 C37.8333333,155.1 42.0333333,157.6 46.6333333,159.4 C49.4333333,160.6 51.3333333,163.3 51.3333333,166.3 L51.3333333,173 C51.3333333,177.1 54.6333333,180.5 58.8333333,180.5 L75.8333333,180.5 C79.9333333,180.5 83.3333333,177.2 83.3333333,173 L83.3333333,166.3 C83.3333333,163.2 85.2333333,160.5 88.0333333,159.4 C92.6333333,157.5 96.8333333,155 100.733333,152.1 C103.133333,150.2 106.433333,149.9 109.133333,151.5 L114.933333,154.9 C118.533333,157 123.133333,155.7 125.133333,152.2 L133.633333,137.4 C135.733333,133.8 134.533333,129.2 130.933333,127.1 Z" id="Path" fill="#DD55F9"></path>
            <path d="M125.133333,65.7 C123.033333,62.1 118.533333,60.9 114.933333,63 L109.133333,66.4 C106.433333,67.9 103.133333,67.7 100.733333,65.8 C96.8333333,62.8 92.6333333,60.3 88.0333333,58.5 C85.2333333,57.3 83.3333333,54.6 83.3333333,51.6 L83.3333333,44.9 C83.3333333,40.8 80.0333333,37.4 75.8333333,37.4 L67.3333333,37.4 L67.3333333,96 C67.3333333,103.1 73.1333333,108.9 80.2333333,108.9 L121.933333,108.9 L121.933333,108.9 C121.933333,106.4 121.733333,104 121.433333,101.6 C121.033333,98.6 122.433333,95.6 125.133333,94 L130.933333,90.6 C134.533333,88.5 135.733333,84 133.633333,80.4 L125.133333,65.7 Z" id="Path" fill="#530EC1"></path>
        </g>
    </g>
</svg>