<?xml version="1.0" encoding="UTF-8"?>
<svg width="300px" height="300px" viewBox="0 0 300 300" version="1.1" xmlns="http://www.w3.org/2000/svg" xmlns:xlink="http://www.w3.org/1999/xlink">
    <title>settings-icon</title>
    <defs>
        <linearGradient x1="1.32272665e-14%" y1="100%" x2="100%" y2="-1.64365049e-14%" id="linearGradient-1">
            <stop stop-color="#DD55F9" offset="0%"></stop>
            <stop stop-color="#530EC1" offset="50.4208062%"></stop>
            <stop stop-color="#20E7A8" offset="100%"></stop>
        </linearGradient>
    </defs>
    <g id="settings-icon" stroke="none" stroke-width="1" fill="none" fill-rule="evenodd">
        <rect id="Rectangle" fill-opacity="0.15" fill="url(#linearGradient-1)" x="0" y="0" width="300" height="300"></rect>
        <g id="settings_icon" transform="translate(62.000000, 60.000000)" fill-rule="nonzero">
            <path d="M163.333333,108.9 L80.2333333,108.9 C73.1333333,108.9 67.3333333,103.1 67.3333333,96 L67.3333333,12.9 C67.3333333,5.8 73.1333333,0 80.2333333,0 L163.333333,0 C170.433333,0 176.233333,5.8 176.233333,12.9 L176.233333,96 C176.233333,103.1 170.433333,108.9 163.333333,108.9 Z" id="Path" fill="#20E7A8"></path>
            <path d="M130.933333,127.1 L125.133333,123.7 C122.433333,122.2 121.033333,119.2 121.433333,116.1 C121.733333,113.7 121.933333,111.3 121.933333,108.8 C121.933333,106.3 121.733333,103.9 121.433333,101.5 C121.033333,98.5 122.433333,95.5 125.133333,93.9 L130.933333,90.5 C134.533333,88.4 135.733333,83.9 133.633333,80.3 L125.133333,65.5 C123.033333,61.9 118.533333,60.7 114.933333,62.8 L109.133333,66.2 C106.433333,67.7 103.133333,67.5 100.733333,65.6 C96.8333333,62.6 92.6333333,60.1 88.0333333,58.3 C85.2333333,57.1 83.3333333,54.4 83.3333333,51.4 L83.3333333,44.7 C83.3333333,40.6 80.0333333,37.2 75.8333333,37.2 L58.8333333,37.2 C54.7333333,37.2 51.3333333,40.5 51.3333333,44.7 L51.3333333,51.4 C51.3333333,54.5 49.4333333,57.2 46.6333333,58.3 C42.0333333,60.2 37.8333333,62.7 33.9333333,65.6 C31.5333333,67.5 28.2333333,67.8 25.5333333,66.2 L19.7333333,62.8 C16.1333333,60.7 11.5333333,62 9.53333333,65.5 L1.03333333,80.4 C-1.06666667,84 0.233333333,88.6 3.73333333,90.6 L9.53333333,94 C12.2333333,95.5 13.6333333,98.5 13.2333333,101.6 C12.9333333,104 12.7333333,106.4 12.7333333,108.9 C12.7333333,111.4 12.9333333,113.8 13.2333333,116.2 C13.6333333,119.2 12.2333333,122.2 9.53333333,123.8 L3.73333333,127.2 C0.133333333,129.3 -1.06666667,133.8 1.03333333,137.4 L9.53333333,152.2 C11.6333333,155.8 16.1333333,157 19.7333333,154.9 L25.5333333,151.5 C28.2333333,150 31.5333333,150.2 33.9333333,152.1 C37.8333333,155.1 42.0333333,157.6 46.6333333,159.4 C49.4333333,160.6 51.3333333,163.3 51.3333333,166.3 L51.3333333,173 C51.3333333,177.1 54.6333333,180.5 58.8333333,180.5 L75.8333333,180.5 C79.9333333,180.5 83.3333333,177.2 83.3333333,173 L83.3333333,166.3 C83.3333333,163.2 85.2333333,160.5 88.0333333,159.4 C92.6333333,157.5 96.8333333,155 100.733333,152.1 C103.133333,150.2 106.433333,149.9 109.133333,151.5 L114.933333,154.9 C118.533333,157 123.133333,155.7 125.133333,152.2 L133.633333,137.4 C135.733333,133.8 134.533333,129.2 130.933333,127.1 Z" id="Path" fill="#DD55F9"></path>
            <path d="M125.133333,65.7 C123.033333,62.1 118.533333,60.9 114.933333,63 L109.133333,66.4 C106.433333,67.9 103.133333,67.7 100.733333,65.8 C96.8333333,62.8 92.6333333,60.3 88.0333333,58.5 C85.2333333,57.3 83.3333333,54.6 83.3333333,51.6 L83.3333333,44.9 C83.3333333,40.8 80.0333333,37.4 75.8333333,37.4 L67.3333333,37.4 L67.3333333,96 C67.3333333,103.1 73.1333333,108.9 80.2333333,108.9 L121.933333,108.9 L121.933333,108.9 C121.933333,106.4 121.733333,104 121.433333,101.6 C121.033333,98.6 122.433333,95.6 125.133333,94 L130.933333,90.6 C134.533333,88.5 135.733333,84 133.633333,80.4 L125.133333,65.7 Z" id="Path" fill="#530EC1"></path>
        </g>
    </g>
</svg>