<?xml version="1.0" encoding="UTF-8"?>
<svg width="1040px" height="300px" viewBox="0 0 1040 300" version="1.1" xmlns="http://www.w3.org/2000/svg" xmlns:xlink="http://www.w3.org/1999/xlink">
    <title>ship-logo</title>
    <defs>
        <linearGradient x1="100%" y1="50%" x2="1.23685784e-13%" y2="50%" id="linearGradient-1">
            <stop stop-color="#1BF2A3" offset="0%"></stop>
            <stop stop-color="#F25252" offset="100%"></stop>
        </linearGradient>
    </defs>
    <g id="ship-logo" stroke="none" stroke-width="1" fill="none" fill-rule="evenodd">
        <g id="Group">
            <rect id="Rectangle" fill-opacity="0.15" fill="url(#linearGradient-1)" x="0" y="0" width="300" height="300" rx="66"></rect>
            <path d="M124.6,79 L232.3,79 C241.6,79 249.1,86.5 249.1,95.8 L249.1,203.5 C249.1,212.8 241.6,220.3 232.3,220.3 L124.6,220.3 C115.3,220.3 107.8,212.8 107.8,203.5 L107.8,95.8 C107.8,86.5 115.3,79 124.6,79 Z" id="Path" fill="#1BF2A3" fill-rule="nonzero"></path>
            <path d="M149.7,140.4 C156.8,144.5 156.8,154.8 149.7,158.9 L107.9,183 L66.1,207.1 C59,211.2 50,206.1 50,197.8 L50,149.6 L50,101.4 C50,93.2 58.9,88 66.1,92.1 L107.9,116.2 L149.7,140.4 Z" id="Path" fill="#F25252" fill-rule="nonzero"></path>
        </g>
        <g id="Ship" transform="translate(338.550000, 87.850000)" fill="#3F413F" fill-rule="nonzero">
            <path d="M36.15,115.2 C29.25,115.2 23.075,113.975 17.625,111.525 C12.175,109.075 7.9,105.675 4.8,101.325 C1.7,96.975 0.1,91.95 0,86.25 L14.55,86.25 C15.05,91.15 17.075,95.275 20.625,98.625 C24.175,101.975 29.35,103.65 36.15,103.65 C42.65,103.65 47.775,102.025 51.525,98.775 C55.275,95.525 57.15,91.35 57.15,86.25 C57.15,82.25 56.05,79 53.85,76.5 C51.65,74 48.9,72.1 45.6,70.8 C42.3,69.5 37.85,68.1 32.25,66.6 C25.35,64.8 19.825,63 15.675,61.2 C11.525,59.4 7.975,56.575 5.025,52.725 C2.075,48.875 0.6,43.7 0.6,37.2 C0.6,31.5 2.05,26.45 4.95,22.05 C7.85,17.65 11.925,14.25 17.175,11.85 C22.425,9.45 28.45,8.25 35.25,8.25 C45.05,8.25 53.075,10.7 59.325,15.6 C65.575,20.5 69.1,27 69.9,35.1 L54.9,35.1 C54.4,31.1 52.3,27.575 48.6,24.525 C44.9,21.475 40,19.95 33.9,19.95 C28.2,19.95 23.55,21.425 19.95,24.375 C16.35,27.325 14.55,31.45 14.55,36.75 C14.55,40.55 15.625,43.65 17.775,46.05 C19.925,48.45 22.575,50.275 25.725,51.525 C28.875,52.775 33.3,54.2 39,55.8 C45.9,57.7 51.45,59.575 55.65,61.425 C59.85,63.275 63.45,66.125 66.45,69.975 C69.45,73.825 70.95,79.05 70.95,85.65 C70.95,90.75 69.6,95.55 66.9,100.05 C64.2,104.55 60.2,108.2 54.9,111 C49.6,113.8 43.35,115.2 36.15,115.2 Z" id="Path"></path>
            <path d="M130.940909,30.45 C137.140909,30.45 142.740909,31.775 147.740909,34.425 C152.740909,37.075 156.665909,41.05 159.515909,46.35 C162.365909,51.65 163.790909,58.1 163.790909,65.7 L163.790909,114.15 L150.290909,114.15 L150.290909,67.65 C150.290909,59.45 148.240909,53.175 144.140909,48.825 C140.040909,44.475 134.440909,42.3 127.340909,42.3 C120.140909,42.3 114.415909,44.55 110.165909,49.05 C105.915909,53.55 103.790909,60.1 103.790909,68.7 L103.790909,114.15 L90.1409091,114.15 L90.1409091,3.15 L103.790909,3.15 L103.790909,43.65 C106.490909,39.45 110.215909,36.2 114.965909,33.9 C119.715909,31.6 125.040909,30.45 130.940909,30.45 Z" id="Path"></path>
            <path d="M192.281818,18.6 C189.681818,18.6 187.481818,17.7 185.681818,15.9 C183.881818,14.1 182.981818,11.9 182.981818,9.3 C182.981818,6.7 183.881818,4.5 185.681818,2.7 C187.481818,0.9 189.681818,0 192.281818,0 C194.781818,0 196.906818,0.9 198.656818,2.7 C200.406818,4.5 201.281818,6.7 201.281818,9.3 C201.281818,11.9 200.406818,14.1 198.656818,15.9 C196.906818,17.7 194.781818,18.6 192.281818,18.6 Z M198.881818,31.95 L198.881818,114.15 L185.231818,114.15 L185.231818,31.95 L198.881818,31.95 Z" id="Shape"></path>
            <path d="M234.872727,47.1 C237.572727,42.4 241.597727,38.475 246.947727,35.325 C252.297727,32.175 258.522727,30.6 265.622727,30.6 C272.922727,30.6 279.547727,32.35 285.497727,35.85 C291.447727,39.35 296.122727,44.275 299.522727,50.625 C302.922727,56.975 304.622727,64.35 304.622727,72.75 C304.622727,81.05 302.922727,88.45 299.522727,94.95 C296.122727,101.45 291.447727,106.5 285.497727,110.1 C279.547727,113.7 272.922727,115.5 265.622727,115.5 C258.622727,115.5 252.447727,113.925 247.097727,110.775 C241.747727,107.625 237.672727,103.7 234.872727,99 L234.872727,153.15 L221.222727,153.15 L221.222727,31.95 L234.872727,31.95 L234.872727,47.1 Z M290.672727,72.75 C290.672727,66.55 289.422727,61.15 286.922727,56.55 C284.422727,51.95 281.047727,48.45 276.797727,46.05 C272.547727,43.65 267.872727,42.45 262.772727,42.45 C257.772727,42.45 253.147727,43.675 248.897727,46.125 C244.647727,48.575 241.247727,52.125 238.697727,56.775 C236.147727,61.425 234.872727,66.8 234.872727,72.9 C234.872727,79.1 236.147727,84.525 238.697727,89.175 C241.247727,93.825 244.647727,97.375 248.897727,99.825 C253.147727,102.275 257.772727,103.5 262.772727,103.5 C267.872727,103.5 272.547727,102.275 276.797727,99.825 C281.047727,97.375 284.422727,93.825 286.922727,89.175 C289.422727,84.525 290.672727,79.05 290.672727,72.75 Z" id="Shape"></path>
        </g>
    </g>
</svg>