<?xml version="1.0" encoding="UTF-8"?>
<svg width="1040px" height="300px" viewBox="0 0 1040 300" version="1.1" xmlns="http://www.w3.org/2000/svg" xmlns:xlink="http://www.w3.org/1999/xlink">
    <title>track-logo</title>
    <defs>
        <linearGradient x1="1.49359691e-13%" y1="26.0707887%" x2="100%" y2="26.0707402%" id="linearGradient-1">
            <stop stop-color="#E44E63" offset="0%"></stop>
            <stop stop-color="#530EC1" offset="50.429924%"></stop>
            <stop stop-color="#47EAE2" offset="100%"></stop>
        </linearGradient>
    </defs>
    <g id="track-logo" stroke="none" stroke-width="1" fill="none" fill-rule="evenodd">
        <g id="Track" transform="translate(335.100000, 91.000000)" fill="#3F413F" fill-rule="nonzero">
            <polygon id="Path" points="70.8 6.45 70.8 17.55 42.3 17.55 42.3 111 28.65 111 28.65 17.55 0 17.55 0 6.45"></polygon>
            <path d="M100.340909,42.15 C102.740909,37.45 106.165909,33.8 110.615909,31.2 C115.065909,28.6 120.490909,27.3 126.890909,27.3 L126.890909,41.4 L123.290909,41.4 C107.990909,41.4 100.340909,49.7 100.340909,66.3 L100.340909,111 L86.6909091,111 L86.6909091,28.8 L100.340909,28.8 L100.340909,42.15 Z" id="Path"></path>
            <path d="M136.631818,69.6 C136.631818,61.2 138.331818,53.825 141.731818,47.475 C145.131818,41.125 149.806818,36.2 155.756818,32.7 C161.706818,29.2 168.331818,27.45 175.631818,27.45 C182.831818,27.45 189.081818,29 194.381818,32.1 C199.681818,35.2 203.631818,39.1 206.231818,43.8 L206.231818,28.8 L220.031818,28.8 L220.031818,111 L206.231818,111 L206.231818,95.7 C203.531818,100.5 199.506818,104.475 194.156818,107.625 C188.806818,110.775 182.581818,112.35 175.481818,112.35 C168.181818,112.35 161.581818,110.55 155.681818,106.95 C149.781818,103.35 145.131818,98.3 141.731818,91.8 C138.331818,85.3 136.631818,77.9 136.631818,69.6 Z M206.231818,69.75 C206.231818,63.55 204.981818,58.15 202.481818,53.55 C199.981818,48.95 196.606818,45.425 192.356818,42.975 C188.106818,40.525 183.431818,39.3 178.331818,39.3 C173.231818,39.3 168.581818,40.5 164.381818,42.9 C160.181818,45.3 156.831818,48.8 154.331818,53.4 C151.831818,58 150.581818,63.4 150.581818,69.6 C150.581818,75.9 151.831818,81.375 154.331818,86.025 C156.831818,90.675 160.181818,94.225 164.381818,96.675 C168.581818,99.125 173.231818,100.35 178.331818,100.35 C183.431818,100.35 188.106818,99.125 192.356818,96.675 C196.606818,94.225 199.981818,90.675 202.481818,86.025 C204.981818,81.375 206.231818,75.95 206.231818,69.75 Z" id="Shape"></path>
            <path d="M237.122727,69.75 C237.122727,61.25 238.822727,53.825 242.222727,47.475 C245.622727,41.125 250.347727,36.2 256.397727,32.7 C262.447727,29.2 269.372727,27.45 277.172727,27.45 C287.272727,27.45 295.597727,29.9 302.147727,34.8 C308.697727,39.7 313.022727,46.5 315.122727,55.2 L300.422727,55.2 C299.022727,50.2 296.297727,46.25 292.247727,43.35 C288.197727,40.45 283.172727,39 277.172727,39 C269.372727,39 263.072727,41.675 258.272727,47.025 C253.472727,52.375 251.072727,59.95 251.072727,69.75 C251.072727,79.65 253.472727,87.3 258.272727,92.7 C263.072727,98.1 269.372727,100.8 277.172727,100.8 C283.172727,100.8 288.172727,99.4 292.172727,96.6 C296.172727,93.8 298.922727,89.8 300.422727,84.6 L315.122727,84.6 C312.922727,93 308.522727,99.725 301.922727,104.775 C295.322727,109.825 287.072727,112.35 277.172727,112.35 C269.372727,112.35 262.447727,110.6 256.397727,107.1 C250.347727,103.6 245.622727,98.65 242.222727,92.25 C238.822727,85.85 237.122727,78.35 237.122727,69.75 Z" id="Path"></path>
            <polygon id="Path" points="378.263636 111 346.013636 74.7 346.013636 111 332.363636 111 332.363636 0 346.013636 0 346.013636 65.25 377.663636 28.8 396.713636 28.8 358.013636 69.75 396.863636 111"></polygon>
        </g>
        <rect id="Rectangle" fill-opacity="0.15" fill="url(#linearGradient-1)" x="0" y="0" width="300" height="300" rx="66"></rect>
        <path d="M235.125,103.505978 C223.525,92.805978 208.725,87.505978 193.925,87.505978 C179.125,87.505978 164.325,92.805978 152.725,103.505978 C130.125,124.405978 127.125,158.005978 143.625,182.305978 L184.225,238.405978 C187.525,242.905978 190.125,244.405978 193.925,244.605978 C197.825,244.305978 200.325,242.905978 203.625,238.405978 L244.225,182.305978 C260.725,157.905978 257.725,124.405978 235.125,103.505978 Z" id="Path" fill="#47EAE2" fill-rule="nonzero"></path>
        <path d="M183.425,56.105978 L53.125,114.605978 C43.625,118.905978 43.625,132.305978 53.125,135.505978 L102.325,152.205978 L119.025,201.405978 C122.225,210.905978 135.625,210.905978 139.925,201.405978 L198.425,71.005978 C202.725,61.205978 193.225,51.705978 183.425,56.105978 Z" id="Path" fill="#F9418D" fill-rule="nonzero"></path>
        <path d="M152.725,103.505978 C130.125,124.405978 127.125,158.005978 143.625,182.305978 L146.625,186.405978 L190.925,87.605978 C177.125,88.205978 163.525,93.505978 152.725,103.505978 Z" id="Path" fill="#530EC1" fill-rule="nonzero"></path>
    </g>
</svg>