<?xml version="1.0" encoding="UTF-8"?><svg version="1.1" width="300px" height="300px" viewBox="0 0 300.0 300.0" xmlns="http://www.w3.org/2000/svg" xmlns:xlink="http://www.w3.org/1999/xlink"><defs><clipPath id="i0"><path d="M300,0 L300,300 L0,300 L0,0 L300,0 Z"></path></clipPath><linearGradient id="i1" x1="300px" y1="300px" x2="0px" y2="-3.33066907e-14px" gradientUnits="userSpaceOnUse"><stop stop-color="#1AF2A2" offset="0%"></stop><stop stop-color="#DC55F9" offset="52.1570027%"></stop><stop stop-color="#8E4DF4" offset="100%"></stop></linearGradient><clipPath id="i2"><path d="M24.5,2.22837289 L58.8,22.0283729 L93.1,41.7283729 C104,48.0283729 104,63.7283729 93.1,70.0283729 L24.5,109.628373 C13.6,115.928373 0,108.028373 0,95.5283729 L0,16.3283729 C0,3.72837289 13.6,-4.07162711 24.5,2.22837289 Z"></path></clipPath><clipPath id="i3"><path d="M75.9,0 C86,0 94.2,8.2 94.2,18.3 L94.2,75.9 C94.1,86 85.9,94.2 75.9,94.2 L18.3,94.2 C8.2,94.2 0,86 0,75.9 L0,18.3 C0,8.2 8.2,0 18.3,0 L75.9,0 Z"></path></clipPath><clipPath id="i4"><path d="M46.6,0 C72.3364693,0 93.2,20.8635307 93.2,46.6 C93.2,72.3364693 72.3364693,93.2 46.6,93.2 C20.8635307,93.2 0,72.3364693 0,46.6 C0,20.8635307 20.8635307,0 46.6,0 Z"></path></clipPath><clipPath id="i5"><path d="M16,0 C24.8,0 32,7.2 32,16 L32,83.7 C32,87.9 35.4,91.3 39.6,91.3 L116.9,91.3 C125.7,91.3 132.9,98.5 132.9,107.3 C132.9,116.1 125.7,123.3 116.9,123.3 L39.6,123.3 C17.7,123.3 0,105.5 0,83.7 L0,16 C0,7.2 7.2,0 16,0 Z"></path></clipPath><clipPath id="i6"><path d="M16,0 C24.8,0 32,7.2 32,16 L32,43.8 C27,45.6 21.6,46.6 16,46.6 C10.4,46.6 5,45.6 0,43.8 L0,16 C0,7.2 7.2,0 16,0 Z"></path></clipPath><clipPath id="i7"><path d="M33.9,0 C42.7,0 49.9,7.2 49.9,16 C49.9,24.8 42.7,32 33.9,32 L0,32 L0,0 Z"></path></clipPath><clipPath id="i8"><path d="M32,0 L32,26.6 C32,30.8 35.4,34.2 39.6,34.2 L70.3,34.2 L70.3,66.2 L39.6,66.2 C17.8,66.2 0,48.5 0,26.6 L0,0 L32,0 Z"></path></clipPath></defs><g clip-path="url(#i0)"><g clip-path="url(#i0)"><polygon points="0,0 300,0 300,300 0,300 0,0" stroke="none" fill="url(#i1)" opacity="15%"></polygon></g><g transform="translate(156.5 143.17162711346504)"><g clip-path="url(#i2)"><polygon points="0,0 101.275,0 101.275,111.843409 0,111.843409 0,0" stroke="none" fill="#1BF2A3"></polygon></g></g><g transform="translate(49.80000000000018 148.5999999999998)"><g clip-path="url(#i3)"><polygon points="0,0 94.2,0 94.2,94.2 0,94.2 0,0" stroke="none" fill="#DD55F9"></polygon></g></g><g transform="translate(42.99999999999999 44.99999999999991)"><g clip-path="url(#i4)"><polygon points="0,0 93.2,0 93.2,93.2 0,93.2 0,0" stroke="none" fill="#8E4DF3"></polygon></g></g><g transform="translate(73.59999999999854 91.70000000000036)"><g clip-path="url(#i5)"><polygon points="0,0 132.9,0 132.9,123.3 0,123.3 0,0" stroke="none" fill="#20E7A8"></polygon></g></g><g transform="translate(73.60000000000036 91.70000000000022)"><g clip-path="url(#i6)"><polygon points="0,0 32,0 32,46.6 0,46.6 0,0" stroke="none" fill="#530DC1"></polygon></g></g><g transform="translate(156.6000000000004 183.0000000000005)"><g clip-path="url(#i7)"><polygon points="0,0 49.9,0 49.9,32 0,32 0,0" stroke="none" fill="#530DC1"></polygon></g></g><g transform="translate(73.60000000000036 148.8000000000001)"><g clip-path="url(#i8)"><polygon points="0,0 70.3,0 70.3,66.2 0,66.2 0,0" stroke="none" fill="#530DC1"></polygon></g></g></g></svg>