<?xml version="1.0" encoding="UTF-8"?><svg version="1.1" width="1081px" height="300px" viewBox="0 0 1081.0 300.0" xmlns="http://www.w3.org/2000/svg" xmlns:xlink="http://www.w3.org/1999/xlink"><defs><clipPath id="i0"><path d="M1081,0 L1081,300 L0,300 L0,0 L1081,0 Z"></path></clipPath><clipPath id="i1"><path d="M14.55,0 L37.35,88.65 L62.55,0 L77.85,0 L101.85,88.35 L124.8,0 L139.5,0 L109.2,104.55 L93.9,104.55 L69.6,20.4 L44.4,104.55 L29.25,104.7 L0,0 L14.55,0 Z"></path></clipPath><clipPath id="i2"><path d="M41.55,0 C49.35,0 56.4,1.725 62.7,5.175 C69,8.625 73.975,13.55 77.625,19.95 C81.275,26.35 83.1,33.8 83.1,42.3 C83.1,50.8 81.225,58.275 77.475,64.725 C73.725,71.175 68.65,76.15 62.25,79.65 C55.85,83.15 48.75,84.9 40.95,84.9 C33.25,84.9 26.275,83.15 20.025,79.65 C13.775,76.15 8.875,71.175 5.325,64.725 C1.775,58.275 0,50.8 0,42.3 C0,33.9 1.825,26.475 5.475,20.025 C9.125,13.575 14.1,8.625 20.4,5.175 C26.7,1.725 33.75,0 41.55,0 Z M41.4,11.85 C36.4,11.85 31.825,12.975 27.675,15.225 C23.525,17.475 20.2,20.9 17.7,25.5 C15.2,30.1 13.95,35.7 13.95,42.3 C13.95,49 15.175,54.65 17.625,59.25 C20.075,63.85 23.35,67.275 27.45,69.525 C31.55,71.775 36.05,72.9 40.95,72.9 C45.85,72.9 50.45,71.75 54.75,69.45 C59.05,67.15 62.525,63.7 65.175,59.1 C67.825,54.5 69.15,48.9 69.15,42.3 C69.15,35.7 67.85,30.1 65.25,25.5 C62.65,20.9 59.25,17.475 55.05,15.225 C50.85,12.975 46.3,11.85 41.4,11.85 Z"></path></clipPath><clipPath id="i3"><path d="M40.2,0 L40.2,14.1 L36.6,14.1 C21.3,14.1 13.65,22.4 13.65,39 L13.65,83.7 L0,83.7 L0,1.5 L13.65,1.5 L13.65,14.85 C16.05,10.15 19.475,6.5 23.925,3.9 C28.375,1.3 33.8,0 40.2,0 Z"></path></clipPath><clipPath id="i4"><path d="M13.65,0 L13.65,65.25 L45.3,28.8 L64.35,28.8 L25.65,69.75 L64.5,111 L45.9,111 L13.65,74.7 L13.65,111 L0,111 L0,0 L13.65,0 Z"></path></clipPath><clipPath id="i5"><path d="M40.65,0 L40.65,11.4 C34.65,11.4 30.425,12.575 27.975,14.925 C25.525,17.275 24.3,21.15 24.3,26.55 L24.3,32.4 L41.55,32.4 L41.55,43.65 L24.3,43.65 L24.3,114.6 L10.65,114.6 L10.65,43.65 L0,43.65 L0,32.4 L10.65,32.4 L10.65,26.55 C10.65,17.35 13.025,10.625 17.775,6.375 C22.525,2.125 30.15,0 40.65,0 Z"></path></clipPath><clipPath id="i6"><path d="M13.65,0 L13.65,111 L0,111 L0,0 L13.65,0 Z"></path></clipPath><clipPath id="i7"><path d="M41.55,0 C49.35,0 56.4,1.725 62.7,5.175 C69,8.625 73.975,13.55 77.625,19.95 C81.275,26.35 83.1,33.8 83.1,42.3 C83.1,50.8 81.225,58.275 77.475,64.725 C73.725,71.175 68.65,76.15 62.25,79.65 C55.85,83.15 48.75,84.9 40.95,84.9 C33.25,84.9 26.275,83.15 20.025,79.65 C13.775,76.15 8.875,71.175 5.325,64.725 C1.775,58.275 0,50.8 0,42.3 C0,33.9 1.825,26.475 5.475,20.025 C9.125,13.575 14.1,8.625 20.4,5.175 C26.7,1.725 33.75,0 41.55,0 Z M41.4,11.85 C36.4,11.85 31.825,12.975 27.675,15.225 C23.525,17.475 20.2,20.9 17.7,25.5 C15.2,30.1 13.95,35.7 13.95,42.3 C13.95,49 15.175,54.65 17.625,59.25 C20.075,63.85 23.35,67.275 27.45,69.525 C31.55,71.775 36.05,72.9 40.95,72.9 C45.85,72.9 50.45,71.75 54.75,69.45 C59.05,67.15 62.525,63.7 65.175,59.1 C67.825,54.5 69.15,48.9 69.15,42.3 C69.15,35.7 67.85,30.1 65.25,25.5 C62.65,20.9 59.25,17.475 55.05,15.225 C50.85,12.975 46.3,11.85 41.4,11.85 Z"></path></clipPath><clipPath id="i8"><path d="M13.95,0 L32.85,69 L53.25,0 L67.2,0 L87.15,69.15 L105.75,0 L119.25,0 L93.6,82.2 L79.5,82.2 L59.7,16.95 L39.9,82.2 L25.8,82.2 L0,0 L13.95,0 Z"></path></clipPath><clipPath id="i9"><path d="M31.8,0 C40.9,0 48.25,2.3 53.85,6.9 C59.45,11.5 62.45,17.8 62.85,25.8 L49.2,25.8 C48.9,21.5 47.175,18.05 44.025,15.45 C40.875,12.85 36.65,11.55 31.35,11.55 C26.45,11.55 22.55,12.6 19.65,14.7 C16.75,16.8 15.3,19.55 15.3,22.95 C15.3,25.65 16.175,27.875 17.925,29.625 C19.675,31.375 21.875,32.775 24.525,33.825 C27.175,34.875 30.85,36.05 35.55,37.35 C41.45,38.95 46.25,40.525 49.95,42.075 C53.65,43.625 56.825,45.95 59.475,49.05 C62.125,52.15 63.5,56.2 63.6,61.2 C63.6,65.7 62.35,69.75 59.85,73.35 C57.35,76.95 53.825,79.775 49.275,81.825 C44.725,83.875 39.5,84.9 33.6,84.9 C27.3,84.9 21.65,83.825 16.65,81.675 C11.65,79.525 7.7,76.525 4.8,72.675 C1.9,68.825 0.3,64.4 0,59.4 L14.1,59.4 C14.5,63.5 16.425,66.85 19.875,69.45 C23.325,72.05 27.85,73.35 33.45,73.35 C38.65,73.35 42.75,72.2 45.75,69.9 C48.75,67.6 50.25,64.7 50.25,61.2 C50.25,57.6 48.65,54.925 45.45,53.175 C42.25,51.425 37.3,49.7 30.6,48 C24.5,46.4 19.525,44.775 15.675,43.125 C11.825,41.475 8.525,39.025 5.775,35.775 C3.025,32.525 1.65,28.25 1.65,22.95 C1.65,18.75 2.9,14.9 5.4,11.4 C7.9,7.9 11.45,5.125 16.05,3.075 C20.65,1.025 25.9,0 31.8,0 Z"></path></clipPath><clipPath id="i10"><path d="M234,0 C270.450793,-6.69590214e-15 300,29.5492065 300,66 L300,234 C300,270.450793 270.450793,300 234,300 L66,300 C29.5492065,300 -9.74691996e-15,270.450793 0,234 L0,66 C-4.46393476e-15,29.5492065 29.5492065,-7.51495258e-15 66,0 L234,0 Z"></path></clipPath><linearGradient id="i11" x1="300px" y1="300px" x2="0px" y2="-3.33066907e-14px" gradientUnits="userSpaceOnUse"><stop stop-color="#1AF2A2" offset="0%"></stop><stop stop-color="#DC55F9" offset="52.1570027%"></stop><stop stop-color="#8E4DF4" offset="100%"></stop></linearGradient><clipPath id="i12"><path d="M24.5,2.22837289 L58.8,22.0283729 L93.1,41.7283729 C104,48.0283729 104,63.7283729 93.1,70.0283729 L24.5,109.628373 C13.6,115.928373 0,108.028373 0,95.5283729 L0,16.3283729 C0,3.72837289 13.6,-4.07162711 24.5,2.22837289 Z"></path></clipPath><clipPath id="i13"><path d="M75.9,0 C86,0 94.2,8.2 94.2,18.3 L94.2,75.9 C94.1,86 85.9,94.2 75.9,94.2 L18.3,94.2 C8.2,94.2 0,86 0,75.9 L0,18.3 C0,8.2 8.2,0 18.3,0 L75.9,0 Z"></path></clipPath><clipPath id="i14"><path d="M46.6,0 C72.3364693,0 93.2,20.8635307 93.2,46.6 C93.2,72.3364693 72.3364693,93.2 46.6,93.2 C20.8635307,93.2 0,72.3364693 0,46.6 C0,20.8635307 20.8635307,0 46.6,0 Z"></path></clipPath><clipPath id="i15"><path d="M16,0 C24.8,0 32,7.2 32,16 L32,83.7 C32,87.9 35.4,91.3 39.6,91.3 L116.9,91.3 C125.7,91.3 132.9,98.5 132.9,107.3 C132.9,116.1 125.7,123.3 116.9,123.3 L39.6,123.3 C17.7,123.3 0,105.5 0,83.7 L0,16 C0,7.2 7.2,0 16,0 Z"></path></clipPath><clipPath id="i16"><path d="M16,0 C24.8,0 32,7.2 32,16 L32,43.8 C27,45.6 21.6,46.6 16,46.6 C10.4,46.6 5,45.6 0,43.8 L0,16 C0,7.2 7.2,0 16,0 Z"></path></clipPath><clipPath id="i17"><path d="M33.9,0 C42.7,0 49.9,7.2 49.9,16 C49.9,24.8 42.7,32 33.9,32 L0,32 L0,0 Z"></path></clipPath><clipPath id="i18"><path d="M32,0 L32,26.6 C32,30.8 35.4,34.2 39.6,34.2 L70.3,34.2 L70.3,66.2 L39.6,66.2 C17.8,66.2 0,48.5 0,26.6 L0,0 L32,0 Z"></path></clipPath></defs><g clip-path="url(#i0)"><g transform="translate(333.44999999999993 87.4)"><g transform="translate(0.0 10.050000000000182)"><g clip-path="url(#i1)"><polygon points="0,0 139.5,0 139.5,104.7 0,104.7 0,0" stroke="none" fill="#3F413F"></polygon></g></g><g transform="translate(148.4909090773626 31.050000000000175)"><g clip-path="url(#i2)"><polygon points="0,0 83.1,0 83.1,84.9 0,84.9 0,0" stroke="none" fill="#3F413F"></polygon></g></g><g transform="translate(248.68181815472514 30.900000000000553)"><g clip-path="url(#i3)"><polygon points="0,0 40.2,0 40.2,83.7 0,83.7 0,0" stroke="none" fill="#3F413F"></polygon></g></g><g transform="translate(303.7227272320879 3.600000000000364)"><g clip-path="url(#i4)"><polygon points="0,0 64.5,0 64.5,111 0,111 0,0" stroke="none" fill="#3F413F"></polygon></g></g><g transform="translate(371.9636363094505 0.0)"><g clip-path="url(#i5)"><polygon points="0,0 41.55,0 41.55,114.6 0,114.6 0,0" stroke="none" fill="#3F413F"></polygon></g></g><g transform="translate(428.5045453868133 3.600000000000364)"><g clip-path="url(#i6)"><polygon points="0,0 13.65,0 13.65,111 0,111 0,0" stroke="none" fill="#3F413F"></polygon></g></g><g transform="translate(459.3954544641756 31.050000000000175)"><g clip-path="url(#i7)"><polygon points="0,0 83.1,0 83.1,84.9 0,84.9 0,0" stroke="none" fill="#3F413F"></polygon></g></g><g transform="translate(549.836363541538 32.40000000000055)"><g clip-path="url(#i8)"><polygon points="0,0 119.25,0 119.25,82.2 0,82.2 0,0" stroke="none" fill="#3F413F"></polygon></g></g><g transform="translate(677.1772726189006 31.050000000000175)"><g clip-path="url(#i9)"><polygon points="0,0 63.6,0 63.6,84.9 0,84.9 0,0" stroke="none" fill="#3F413F"></polygon></g></g></g><g clip-path="url(#i10)"><polygon points="0,0 300,0 300,300 0,300 0,0" stroke="none" fill="url(#i11)" opacity="15%"></polygon></g><g transform="translate(156.5 143.1716271134648)"><g clip-path="url(#i12)"><polygon points="0,0 101.275,0 101.275,111.843409 0,111.843409 0,0" stroke="none" fill="#1BF2A3"></polygon></g></g><g transform="translate(49.80000000000041 148.5999999999998)"><g clip-path="url(#i13)"><polygon points="0,0 94.2,0 94.2,94.2 0,94.2 0,0" stroke="none" fill="#DD55F9"></polygon></g></g><g transform="translate(42.99999999999991 44.99999999999945)"><g clip-path="url(#i14)"><polygon points="0,0 93.2,0 93.2,93.2 0,93.2 0,0" stroke="none" fill="#8E4DF3"></polygon></g></g><g transform="translate(73.59999999999832 91.70000000000036)"><g clip-path="url(#i15)"><polygon points="0,0 132.9,0 132.9,123.3 0,123.3 0,0" stroke="none" fill="#20E7A8"></polygon></g></g><g transform="translate(73.60000000000036 91.69999999999999)"><g clip-path="url(#i16)"><polygon points="0,0 32,0 32,46.6 0,46.6 0,0" stroke="none" fill="#530DC1"></polygon></g></g><g transform="translate(156.6000000000001 183.0)"><g clip-path="url(#i17)"><polygon points="0,0 49.9,0 49.9,32 0,32 0,0" stroke="none" fill="#530DC1"></polygon></g></g><g transform="translate(73.60000000000014 148.7999999999996)"><g clip-path="url(#i18)"><polygon points="0,0 70.3,0 70.3,66.2 0,66.2 0,0" stroke="none" fill="#530DC1"></polygon></g></g></g></svg>